<svg xmlns="http://www.w3.org/2000/svg" width="1280px" height="720px" viewBox="0 0 1280 720">
<polyline points="807.755,214.202 807.755,214.202 " style="fill:none;stroke:black;stroke-width:1" />
<polyline points="410.462,214.202 424.85,193.264 449.629,175.721 482.398,161.709 521.315,151.38 560.34,145.632 " style="fill:none;stroke:black;stroke-width:1" />
<polyline points="655.924,144.75 659.98,144.941 703.064,151.38 740.968,161.709 772.363,175.721 795.421,193.264 807.755,214.202 " style="fill:none;stroke:black;stroke-width:1" />
<polyline points="806.699,232.915 807.755,214.202 808.467,209.852 798.617,187.29 778.241,170.249 745.59,155.875 706.282,145.295 661.681,138.706 658.913,138.577 " style="fill:none;stroke:black;stroke-width:1" />
<polyline points="557.233,139.614 518.214,145.295 477.859,155.875 443.786,170.249 417.899,188.281 413.887,192.019 398.213,214.202 394.122,221.418 385.981,241.031 " style="fill:none;stroke:black;stroke-width:1" />
<polyline points="372.16,275.553 367.206,288.264 356.601,319.715 349.009,349.612 345.215,377.802 340.799,416.089 341.593,443.638 349.927,466.608 365.376,505.009 380.38,520.742 413.69,554.171 464.247,581.54 476.395,587.625 536.818,604.618 543.356,605.54 608.003,611.163 673,605.54 678.44,604.618 739.941,587.625 788.435,562.258 803.287,554.171 838.77,520.742 852.953,505.009 870.973,466.608 878.622,443.638 878.722,416.089 878.51,411.103 " style="fill:none;stroke:black;stroke-width:1" />
<polyline points="869.899,339.958 864.253,319.715 852.862,288.264 839.245,255.433 824.276,221.418 820.005,214.202 806.506,192.019 802.344,188.281 778.241,170.249 " style="fill:none;stroke:black;stroke-width:1" />
<polyline points="413.887,192.019 413.887,192.019 " style="fill:none;stroke:black;stroke-width:1" />
<polyline points="394.122,221.418 377.654,283.21 364.156,319.149 352.919,353.508 344.847,385.935 340.799,416.089 357.162,482.239 365.376,505.009 413.69,554.171 " style="fill:none;stroke:black;stroke-width:1" />
<polyline points="476.395,587.625 476.395,587.625 " style="fill:none;stroke:black;stroke-width:1" />
<polyline points="543.356,605.54 543.356,605.54 " style="fill:none;stroke:black;stroke-width:1" />
<polyline points="613.433,610.693 667.325,607.961 717.367,596.983 730.073,590.352 " style="fill:none;stroke:black;stroke-width:1" />
<polyline points="870.973,466.608 870.973,466.608 " style="fill:none;stroke:black;stroke-width:1" />
<polyline points="345.215,377.802 345.215,377.802 " style="fill:none;stroke:black;stroke-width:1" />
<polyline points="341.593,443.638 365.376,505.009 400.317,540.048 413.69,554.171 " style="fill:none;stroke:black;stroke-width:1" />
<polyline points="476.395,587.625 476.395,587.625 " style="fill:none;stroke:black;stroke-width:1" />
<polyline points="555.471,606.594 608.616,613.049 666.768,611.007 717.367,596.983 " style="fill:none;stroke:black;stroke-width:1" />
<polyline points="492.001,592.015 501.22,596.983 550.968,611.007 608.715,616.052 666.768,611.007 " style="fill:none;stroke:black;stroke-width:1" />
<polyline points="717.367,596.983 718.481,593.824 718.956,593.426 " style="fill:none;stroke:black;stroke-width:1" />
<polyline points="788.435,562.258 788.435,562.258 " style="fill:none;stroke:black;stroke-width:1" />
<polyline points="838.77,520.742 838.77,520.742 " style="fill:none;stroke:black;stroke-width:1" />
<polyline points="380.38,520.742 380.38,520.742 " style="fill:none;stroke:black;stroke-width:1" />
<polyline points="543.356,605.54 543.356,605.54 " style="fill:none;stroke:black;stroke-width:1" />
<polyline points="673,605.54 673,605.54 " style="fill:none;stroke:black;stroke-width:1" />
<polyline points="739.941,587.625 750.952,581.54 803.287,554.171 815.664,540.048 852.953,505.009 860.368,482.239 878.622,443.638 " style="fill:none;stroke:black;stroke-width:1" />
<polyline points="341.593,443.638 357.162,482.239 400.317,540.048 464.247,581.54 536.818,604.618 608.003,611.163 " style="fill:none;stroke:black;stroke-width:1" />
<polyline points="711.051,595.608 718.481,593.824 719.973,593.144 " style="fill:none;stroke:black;stroke-width:1" />
<polyline points="507.47,596.364 550.968,611.007 " style="fill:none;stroke:black;stroke-width:1" />
<polyline points="413.887,192.019 413.887,192.019 " style="fill:none;stroke:black;stroke-width:1" />
<polyline points="443.786,170.249 480.228,155.526 519.819,145.141 557.279,139.686 " style="fill:none;stroke:black;stroke-width:1" />
<polyline points="658.908,138.585 660.736,138.67 661.681,138.706 704.53,145.141 706.282,145.295 743.091,155.526 745.59,155.875 775.071,169.623 798.617,187.29 802.344,188.281 815.403,209.852 820.005,214.202 819.123,238.065 823.54,246.052 839.079,283.21 853.282,319.149 865.217,353.507 873.981,385.935 878.722,416.089 860.441,453.517 822.136,487.76 764.798,515.979 690.996,535.044 605.184,541.964 519.876,535.044 447.461,515.979 392.174,487.76 356.359,453.517 340.799,416.089 349.009,349.612 " style="fill:none;stroke:black;stroke-width:1" />
<polyline points="414.188,240.842 417.629,236.398 422.571,231.725 " style="fill:none;stroke:black;stroke-width:1" />
<polyline points="500.441,164.322 503.73,161.791 " style="fill:none;stroke:black;stroke-width:1" />
<polyline points="658.908,138.585 660.736,138.67 704.53,145.141 743.091,155.526 775.071,169.623 778.241,170.249 " style="fill:none;stroke:black;stroke-width:1" />
<polyline points="806.506,192.019 806.506,192.019 " style="fill:none;stroke:black;stroke-width:1" />
<polyline points="824.276,221.418 823.54,246.052 807.048,269.702 775.212,290.976 729.187,308.252 671.112,319.795 604.241,323.96 537.773,319.795 480.814,308.252 436.46,290.976 406.681,269.702 392.476,246.052 394.122,221.418 " style="fill:none;stroke:black;stroke-width:1" />
<polyline points="443.786,170.249 446.849,169.623 481.9,157.538 520.962,147.248 558.359,141.78 " style="fill:none;stroke:black;stroke-width:1" />
<polyline points="657.869,140.729 660.107,140.834 703.341,147.248 741.385,157.538 772.902,171.499 796.063,188.982 808.467,209.852 807.221,232.214 " style="fill:none;stroke:black;stroke-width:1" />
<polyline points="791.477,253.565 807.221,232.214 811.284,208.398 802.344,188.281 " style="fill:none;stroke:black;stroke-width:1" />
<polyline points="375.047,275.358 364.156,319.149 368.224,386.399 360.321,421.39 356.359,453.517 357.162,482.239 392.944,517.55 453.913,568.855 464.247,581.54 529.853,599.94 607.434,610.756 673,605.54 " style="fill:none;stroke:black;stroke-width:1" />
<polyline points="548.46,605.989 550.217,607.961 550.968,611.007 " style="fill:none;stroke:black;stroke-width:1" />
<polyline points="513.36,160.849 513.711,159.114 " style="fill:none;stroke:black;stroke-width:1" />
<polyline points="518.214,145.295 557.267,139.676 " style="fill:none;stroke:black;stroke-width:1" />
<polyline points="656.085,144.421 659.98,144.941 704.035,157.275 742.323,167.812 774.06,182.112 797.405,200.025 807.571,217.379 " style="fill:none;stroke:black;stroke-width:1" />
<polyline points="807.6,216.884 795.421,193.264 772.902,171.499 743.091,155.526 741.385,157.538 740.968,161.709 742.323,167.812 703.064,151.38 660.107,140.834 657.916,140.631 " style="fill:none;stroke:black;stroke-width:1" />
<polyline points="459.561,177.18 426.981,208.488 410.198,220.696 " style="fill:none;stroke:black;stroke-width:1" />
<polyline points="378.815,269.476 377.654,283.21 379.199,349.092 368.224,386.399 395.654,453.784 447.461,515.979 520.443,566.299 606.139,595.327 684.15,599.94 739.941,587.625 " style="fill:none;stroke:black;stroke-width:1" />
<polyline points="493.718,592.498 501.22,596.983 " style="fill:none;stroke:black;stroke-width:1" />
<polyline points="664.585,151.976 664.491,151.313 " style="fill:none;stroke:black;stroke-width:1" />
<polyline points="661.681,138.706 661.681,138.706 " style="fill:none;stroke:black;stroke-width:1" />
<polyline points="551.798,152.628 550.724,153.306 " style="fill:none;stroke:black;stroke-width:1" />
<polyline points="425.895,248.152 421.511,252.307 " style="fill:none;stroke:black;stroke-width:1" />
<polyline points="356.601,319.715 344.847,385.935 356.359,453.517 392.944,517.55 400.317,540.048 453.913,568.855 529.853,599.94 536.818,604.618 607.434,610.756 678.44,604.618 " style="fill:none;stroke:black;stroke-width:1" />
<polyline points="608.715,616.052 550.217,607.961 539.839,605.044 " style="fill:none;stroke:black;stroke-width:1" />
<polyline points="737.488,170.166 742.609,167.949 " style="fill:none;stroke:black;stroke-width:1" />
<polyline points="791.335,195.37 796.517,208.488 805.944,233.941 " style="fill:none;stroke:black;stroke-width:1" />
<polyline points="789.612,210.772 796.517,208.488 800.629,205.537 " style="fill:none;stroke:black;stroke-width:1" />
<polyline points="820.005,214.202 814.37,233.021 798.282,255.196 767.613,275.087 723.521,291.199 668.064,301.946 604.307,305.82 540.933,301.946 486.539,291.199 444.041,275.087 415.34,255.196 401.446,233.021 402.706,209.852 417.899,188.281 446.849,169.623 480.228,155.526 520.962,147.248 560.116,145.199 " style="fill:none;stroke:black;stroke-width:1" />
<polyline points="651.596,150.282 660.537,150.709 704.035,157.275 703.064,151.38 703.341,147.248 704.53,145.141 741.385,157.538 772.363,175.721 797.405,200.025 795.421,193.264 796.063,188.982 798.617,187.29 811.284,208.398 810.125,231.037 794.236,252.674 764.122,272.056 720.937,287.739 " style="fill:none;stroke:black;stroke-width:1" />
<polyline points="542.46,298.19 489.262,287.739 447.634,272.056 419.443,252.674 405.701,231.037 406.788,208.398 421.55,187.29 446.849,169.623 449.001,171.499 449.629,175.721 448.138,182.112 423.061,200.025 410.462,214.202 408.675,232.214 " style="fill:none;stroke:black;stroke-width:1" />
<polyline points="806.771,232.82 808.467,209.852 811.284,208.398 815.403,209.852 814.37,233.021 794.236,252.674 761.748,272.674 " style="fill:none;stroke:black;stroke-width:1" />
<polyline points="666.702,298.19 720.937,287.739 767.613,275.087 802.82,260.942 823.54,246.052 839.245,255.433 839.079,283.21 821.975,310.015 788.233,334.242 738.981,353.997 676.493,367.238 604.347,372.024 532.634,367.238 471.344,353.997 423.881,334.242 392.332,310.015 377.654,283.21 392.476,246.052 396.754,238.065 401.446,233.021 405.701,231.037 408.675,232.214 422.307,253.565 447.634,272.056 486.539,291.199 539.267,309.288 604.241,323.96 676.493,367.238 748.06,398.527 810.442,416.371 855.802,421.39 878.722,416.089 " style="fill:none;stroke:black;stroke-width:1" />
<polyline points="1019,213.34 1030.21,210.723 1046.08,209.518 1062.94,209.818 1077.12,211.736 1084.86,215.408 1096.57,212.064 1102.65,211.2 1102.6,212.615 1099.68,218.155 1093.4,222.142 1080.23,227.612 " style="fill:none;stroke:black;stroke-width:1" />
<polyline points="878.642,439.837 912.606,430.206 955.363,394.962 980.432,350.771 1000.61,303.619 1020.94,262.811 1046.39,232.654 1056.98,227.519 1063.09,223.556 1064.62,221.042 1085.17,219.29 1099.68,218.155 1099.45,215.91 1102.65,211.2 1092.68,206.595 1074.63,204.257 1053.24,203.976 1050.19,204.063 1029.05,205.647 1014.17,209.252 1007.35,211.342 999.25,215.343 972.377,238.102 954.837,263.907 939.459,289.214 922.829,321.019 899.15,361.236 874.502,379.842 " style="fill:none;stroke:black;stroke-width:1" />
<polyline points="878.645,438.394 913.531,427.216 954.001,393.424 977.3,350.608 995.463,304.888 1007.62,262.042 1024.57,231.386 1033.71,226.597 1039.93,223.021 1042.82,220.896 1064.62,221.042 1084.79,221.873 1093.4,222.142 " style="fill:none;stroke:black;stroke-width:1" />
<polyline points="1102.6,212.615 1102.6,212.615 " style="fill:none;stroke:black;stroke-width:1" />
<polyline points="1050.19,204.063 1050.19,204.063 " style="fill:none;stroke:black;stroke-width:1" />
<polyline points="1007.35,211.342 996.337,221.418 971.642,244.409 955.842,271.193 941.865,297.911 922.829,321.019 891.98,337.229 871.193,352.073 " style="fill:none;stroke:black;stroke-width:1" />
<polyline points="876.067,393.988 905.883,387.886 940.063,362.791 959.832,329.411 974.28,292.834 992.676,258.325 1006.23,227.612 1003.98,217.3 1007.35,211.342 " style="fill:none;stroke:black;stroke-width:1" />
<polyline points="1029.05,205.647 1053.24,203.976 1071.37,206.017 1087.67,208.027 1096.57,212.064 1093.14,215.657 1080.04,218.516 " style="fill:none;stroke:black;stroke-width:1" />
<polyline points="1017.85,214.972 1019,213.34 1020.79,210.365 1033.72,207.334 1051.99,205.839 1071.37,206.017 1074.63,204.257 1087.67,208.027 1092.68,206.595 1096.57,212.064 1081.22,217.628 " style="fill:none;stroke:black;stroke-width:1" />
<polyline points="1042,220.441 1061.53,220.24 1085.17,219.29 1099.45,215.91 1102.6,212.615 " style="fill:none;stroke:black;stroke-width:1" />
<polyline points="999.25,215.343 971.642,244.409 963.411,282.415 959.832,329.411 948.365,381.536 913.531,427.216 912.606,430.206 " style="fill:none;stroke:black;stroke-width:1" />
<polyline points="955.363,394.962 977.3,350.608 985.843,300.835 992.676,258.325 1024.57,231.386 1046.39,232.654 1066.63,231.386 1080.23,227.612 " style="fill:none;stroke:black;stroke-width:1" />
<polyline points="1099.68,218.155 1084.79,221.873 1063.09,223.556 1039.93,223.021 1020.69,220.138 1010.6,214.822 1003.98,217.3 996.337,221.418 979.562,252.236 963.411,282.415 949.789,313.53 930.917,341.202 905.883,387.886 877.88,406.657 " style="fill:none;stroke:black;stroke-width:1" />
<polyline points="878.71,419.542 911.016,411.62 948.365,381.536 969.745,342.68 985.843,300.835 1007.62,262.042 1046.39,232.654 1033.71,226.597 1020.69,220.138 1015.39,213.995 1010.6,214.822 1014.29,223.186 1024.57,231.386 1006.23,227.612 996.337,221.418 999.25,215.343 " style="fill:none;stroke:black;stroke-width:1" />
<polyline points="1050.19,204.063 1050.19,204.063 " style="fill:none;stroke:black;stroke-width:1" />
<polyline points="1074.63,204.257 1074.63,204.257 " style="fill:none;stroke:black;stroke-width:1" />
<polyline points="1022.23,215.573 1020.71,216.311 " style="fill:none;stroke:black;stroke-width:1" />
<polyline points="972.377,238.102 955.842,271.193 949.789,313.53 940.063,362.791 911.016,411.62 878.687,428.264 " style="fill:none;stroke:black;stroke-width:1" />
<polyline points="878.656,436.701 913.531,427.216 911.016,411.62 905.883,387.886 899.15,361.236 891.98,337.229 887.473,326.23 866.796,328.831 " style="fill:none;stroke:black;stroke-width:1" />
<polyline points="980.432,350.771 995.463,304.888 1020.94,262.811 1066.63,231.386 1078.68,226.001 1093.4,222.142 " style="fill:none;stroke:black;stroke-width:1" />
<polyline points="1029.24,260.135 1066.63,231.386 1056.98,227.519 1039.93,223.021 1024.77,218.612 1015.39,213.995 1018.92,208.963 1033.13,205.589 1053.24,203.976 1051.99,205.839 1046.08,209.518 1035.24,214.862 1022.01,215.584 1020.1,216.033 " style="fill:none;stroke:black;stroke-width:1" />
<polyline points="1025.89,218.747 1042.82,220.896 1063.09,223.556 1078.68,226.001 1080.23,227.612 1029.24,260.135 1020.94,262.811 1007.62,262.042 992.676,258.325 979.562,252.236 971.642,244.409 972.377,238.102 " style="fill:none;stroke:black;stroke-width:1" />
<polyline points="1029.05,205.647 1033.13,205.589 1051.99,205.839 1062.94,209.818 1071.37,206.017 1077.12,211.736 1087.67,208.027 1084.86,215.408 1081.22,217.628 " style="fill:none;stroke:black;stroke-width:1" />
<polyline points="1073.09,219.164 1081.22,217.628 1093.14,215.657 1099.45,215.91 1080.04,218.516 " style="fill:none;stroke:black;stroke-width:1" />
<polyline points="1025.89,218.747 1042,220.441 1064.62,221.042 1061.53,220.24 " style="fill:none;stroke:black;stroke-width:1" />
<polyline points="807.221,232.214 810.125,231.037 814.37,233.021 819.123,238.065 802.82,260.942 771.541,281.492 726.442,298.161 669.624,309.288 604.249,313.301 539.267,309.288 483.54,298.161 440.077,281.492 410.812,260.942 396.754,238.065 398.213,214.202 417.899,188.281 421.55,187.29 449.001,171.499 481.9,157.538 521.315,151.38 564.658,150.709 " style="fill:none;stroke:black;stroke-width:1" />
<polyline points="810.125,231.037 815.403,209.852 806.506,192.019 " style="fill:none;stroke:black;stroke-width:1" />
<polyline points="701.477,156.889 699.181,157.877 " style="fill:none;stroke:black;stroke-width:1" />
<polyline points="349.927,466.608 349.927,466.608 " style="fill:none;stroke:black;stroke-width:1" />
<polyline points="380.38,520.742 380.38,520.742 " style="fill:none;stroke:black;stroke-width:1" />
<polyline points="541.72,605.31 550.217,607.961 608.616,613.049 667.325,607.961 718.481,593.824 719.581,593.252 " style="fill:none;stroke:black;stroke-width:1" />
<polyline points="500.118,594.297 501.22,596.983 " style="fill:none;stroke:black;stroke-width:1" />
<polyline points="561.37,151.719 561.42,151.202 " style="fill:none;stroke:black;stroke-width:1" />
<polyline points="564.658,150.714 520.565,157.275 482.398,161.709 449.001,171.499 424.11,188.982 406.788,208.398 402.706,209.852 398.213,214.202 392.476,246.052 392.332,310.015 412.323,376.277 455.3,440.98 521.156,498.441 605.184,541.964 691.238,566.299 760.139,568.855 803.287,554.171 " style="fill:none;stroke:black;stroke-width:1" />
<polyline points="819.123,238.065 824.276,221.418 " style="fill:none;stroke:black;stroke-width:1" />
<polyline points="349.927,466.608 349.927,466.608 " style="fill:none;stroke:black;stroke-width:1" />
<polyline points="345.215,377.802 345.215,377.802 " style="fill:none;stroke:black;stroke-width:1" />
<polyline points="415.688,243.187 417.629,236.398 426.981,208.488 432.417,193.344 " style="fill:none;stroke:black;stroke-width:1" />
<polyline points="477.859,155.875 519.819,145.141 558.19,141.469 " style="fill:none;stroke:black;stroke-width:1" />
<polyline points="652.527,149.37 660.537,150.709 659.98,144.941 660.107,140.834 660.736,138.67 703.341,147.248 740.968,161.709 774.06,182.112 772.363,175.721 772.902,171.499 775.071,169.623 796.063,188.982 807.751,214.192 " style="fill:none;stroke:black;stroke-width:1" />
<polyline points="791.477,253.565 810.118,231.045 " style="fill:none;stroke:black;stroke-width:1" />
<polyline points="791.477,253.565 794.236,252.674 798.282,255.196 802.82,260.942 807.048,269.702 821.975,310.015 835.69,349.092 847.266,386.399 855.802,421.39 860.441,453.517 860.368,482.239 822.13,517.55 764.898,546.644 691.238,566.299 605.593,573.434 520.443,566.299 448.151,546.644 392.944,517.55 392.174,487.76 395.654,453.784 402.638,416.371 412.323,376.277 423.881,334.242 436.46,290.976 440.077,281.492 444.041,275.087 447.634,272.056 450.145,272.674 491.116,288.101 " style="fill:none;stroke:black;stroke-width:1" />
<polyline points="720.937,287.739 723.521,291.199 726.442,298.161 729.187,308.252 738.981,353.997 748.06,398.527 755.8,440.98 761.579,480.445 764.798,515.979 764.898,546.644 760.139,568.855 750.952,581.54 684.15,599.94 606.785,606.601 529.853,599.94 523.87,588.282 520.443,566.299 519.876,535.044 521.156,498.441 523.951,457.562 527.901,413.482 532.634,367.238 537.773,319.795 539.267,309.288 540.933,301.946 542.46,298.19 604.394,301.955 668.064,301.946 726.442,298.161 775.212,290.976 821.975,310.015 853.282,319.149 864.253,319.715 865.217,353.507 847.266,386.399 810.442,416.371 755.8,440.98 685.816,457.563 604.642,463.574 523.951,457.562 455.3,440.98 402.638,416.371 368.224,386.399 352.919,353.508 356.601,319.715 " style="fill:none;stroke:black;stroke-width:1" />
<polyline points="409.8,230.246 426.981,208.488 433.132,205.756 " style="fill:none;stroke:black;stroke-width:1" />
<polyline points="785.426,203.357 796.517,208.488 807.264,216.857 " style="fill:none;stroke:black;stroke-width:1" />
<polyline points="839.245,255.433 839.245,255.433 " style="fill:none;stroke:black;stroke-width:1" />
<polyline points="712.121,161.448 711.606,159.36 " style="fill:none;stroke:black;stroke-width:1" />
<polyline points="706.282,145.295 706.282,145.295 " style="fill:none;stroke:black;stroke-width:1" />
<polyline points="433.996,260.636 433.421,261.193 " style="fill:none;stroke:black;stroke-width:1" />
<polyline points="349.009,349.612 344.847,385.935 360.321,421.39 392.174,487.76 448.151,546.644 523.87,588.282 606.785,606.601 678.44,604.618 684.15,599.94 688.88,588.282 691.238,566.299 690.996,535.044 689.088,498.441 685.816,457.563 681.506,413.482 676.493,367.238 671.112,319.795 669.624,309.288 668.064,301.946 666.702,298.19 604.394,301.955 " style="fill:none;stroke:black;stroke-width:1" />
<polyline points="450.145,272.674 422.307,253.565 419.443,252.674 408.675,232.214 409.642,209.852 424.11,188.982 449.629,175.721 481.258,167.812 520.565,157.275 521.315,151.38 520.962,147.248 519.819,145.141 518.214,145.295 " style="fill:none;stroke:black;stroke-width:1" />
<polyline points="367.206,288.264 352.919,353.508 360.321,421.39 395.654,453.784 450.038,480.445 519.876,535.044 605.593,573.434 688.88,588.282 750.952,581.54 788.435,562.258 " style="fill:none;stroke:black;stroke-width:1" />
<polyline points="798.282,255.196 819.115,238.072 " style="fill:none;stroke:black;stroke-width:1" />
<polyline points="761.748,272.674 791.477,253.565 " style="fill:none;stroke:black;stroke-width:1" />
<polyline points="719.474,288.02 761.748,272.674 764.122,272.056 798.273,255.2 " style="fill:none;stroke:black;stroke-width:1" />
<polyline points="764.122,272.056 767.613,275.087 771.541,281.492 775.212,290.976 788.233,334.242 800.252,376.277 810.442,416.371 817.998,453.784 822.136,487.76 822.13,517.55 815.664,540.048 760.139,568.855 688.88,588.282 606.139,595.327 523.87,588.282 453.913,568.855 448.151,546.644 447.461,515.979 450.038,480.445 455.3,440.98 462.62,398.527 471.344,353.997 480.814,308.252 483.54,298.161 486.539,291.199 489.262,287.739 " style="fill:none;stroke:black;stroke-width:1" />
<polyline points="542.46,298.19 604.307,305.82 669.624,309.288 729.187,308.252 788.233,334.242 835.69,349.092 865.217,353.507 871.007,350.449 " style="fill:none;stroke:black;stroke-width:1" />
<polyline points="771.541,281.492 807.048,269.702 839.079,283.21 852.862,288.264 853.282,319.149 835.69,349.092 800.252,376.277 748.06,398.527 681.506,413.482 604.473,418.896 527.901,413.482 462.62,398.527 412.323,376.277 379.199,349.092 364.156,319.149 367.206,288.264 " style="fill:none;stroke:black;stroke-width:1" />
<polyline points="413.385,239.589 417.629,236.398 422.516,234.146 " style="fill:none;stroke:black;stroke-width:1" />
<polyline points="794.915,230.672 804.843,235.434 " style="fill:none;stroke:black;stroke-width:1" />
<polyline points="852.862,288.264 852.862,288.264 " style="fill:none;stroke:black;stroke-width:1" />
<polyline points="755.66,178.42 753.866,173.02 " style="fill:none;stroke:black;stroke-width:1" />
<polyline points="745.59,155.875 745.59,155.875 " style="fill:none;stroke:black;stroke-width:1" />
<polyline points="654.527,150.423 654.336,150.509 " style="fill:none;stroke:black;stroke-width:1" />
<polyline points="1035.24,214.862 1049.38,215.584 1061.35,217.759 1065.25,219.894 " style="fill:none;stroke:black;stroke-width:1" />
<polyline points="1084.86,215.408 1073.22,219.138 " style="fill:none;stroke:black;stroke-width:1" />
<polyline points="1069.86,219.463 1077.12,211.736 1061.35,217.759 1062.94,209.818 1049.38,215.584 1046.08,209.518 1033.72,207.334 1018.92,208.963 1014.17,209.252 1003.98,217.3 1014.29,223.186 1033.71,226.597 1056.98,227.519 1078.68,226.001 1084.79,221.873 1085.17,219.29 1080.04,218.516 1061.53,220.24 " style="fill:none;stroke:black;stroke-width:1" />
<polyline points="1073.57,219.118 1093.14,215.657 1102.65,211.2 " style="fill:none;stroke:black;stroke-width:1" />
<polyline points="954.837,263.907 941.865,297.911 930.917,341.202 940.063,362.791 948.365,381.536 954.001,393.424 955.363,394.962 " style="fill:none;stroke:black;stroke-width:1" />
<polyline points="919.273,310.908 939.459,289.214 " style="fill:none;stroke:black;stroke-width:1" />
<polyline points="1029.24,260.135 1000.61,303.619 " style="fill:none;stroke:black;stroke-width:1" />
<polyline points="1025.31,215.405 1022.61,217.205 " style="fill:none;stroke:black;stroke-width:1" />
<polyline points="887.473,326.23 868.13,333.582 " style="fill:none;stroke:black;stroke-width:1" />
<polyline points="872.568,365.434 899.15,361.236 930.917,341.202 922.829,321.019 919.273,310.908 " style="fill:none;stroke:black;stroke-width:1" />
<polyline points="1040.04,220.234 1047.66,215.5 " style="fill:none;stroke:black;stroke-width:1" />
<polyline points="1092.68,206.595 1092.68,206.595 " style="fill:none;stroke:black;stroke-width:1" />
<polyline points="1063.11,218.727 1059.15,220.264 " style="fill:none;stroke:black;stroke-width:1" />
<polyline points="1064.09,220 1064.73,219.614 " style="fill:none;stroke:black;stroke-width:1" />
<polyline points="1044.95,215.358 1034.54,219.654 " style="fill:none;stroke:black;stroke-width:1" />
<polyline points="869.905,339.958 891.98,337.229 919.273,310.908 887.473,326.23 " style="fill:none;stroke:black;stroke-width:1" />
<polyline points="912.606,430.206 954.001,393.424 969.745,342.68 974.28,292.834 979.562,252.236 1006.23,227.612 1014.29,223.186 1020.69,220.138 1024.77,218.612 1025.89,218.747 1017.52,214.822 1015.39,213.995 1020.79,210.365 1030.21,210.723 1035.23,214.855 " style="fill:none;stroke:black;stroke-width:1" />
<polyline points="719.484,288.018 764.112,272.06 " style="fill:none;stroke:black;stroke-width:1" />
<polyline points="723.521,291.199 771.531,281.494 " style="fill:none;stroke:black;stroke-width:1" />
<polyline points="666.702,298.19 723.511,291.201 " style="fill:none;stroke:black;stroke-width:1" />
<polyline points="604.394,301.955 604.307,305.82 604.249,313.301 604.241,323.96 604.347,372.024 604.473,418.896 604.642,463.574 604.873,504.971 605.184,541.964 605.593,573.434 606.139,595.327 606.785,606.601 607.434,610.756 608.003,611.163 " style="fill:none;stroke:black;stroke-width:1" />
<polyline points="608.436,611.127 608.616,613.049 608.715,616.052 " style="fill:none;stroke:black;stroke-width:1" />
<polyline points="425.58,255.806 429.614,253.88 " style="fill:none;stroke:black;stroke-width:1" />
<polyline points="788.59,249.939 792.657,251.957 " style="fill:none;stroke:black;stroke-width:1" />
<polyline points="864.253,319.715 864.253,319.715 " style="fill:none;stroke:black;stroke-width:1" />
<polyline points="604.249,313.301 671.112,319.795 738.981,353.997 800.252,376.277 847.266,386.399 873.981,385.935 874.903,383.523 " style="fill:none;stroke:black;stroke-width:1" />
<polyline points="540.933,301.946 604.239,313.299 " style="fill:none;stroke:black;stroke-width:1" />
<polyline points="422.307,253.565 422.307,253.565 " style="fill:none;stroke:black;stroke-width:1" />
<polyline points="410.276,218.758 423.061,200.025 424.85,193.264 424.11,188.982 421.55,187.29 402.706,209.852 396.754,238.065 406.681,269.702 423.881,334.242 462.62,398.527 523.951,457.562 604.873,504.971 690.996,535.044 764.898,546.644 815.664,540.048 838.77,520.742 " style="fill:none;stroke:black;stroke-width:1" />
<polyline points="489.262,287.739 540.923,301.943 " style="fill:none;stroke:black;stroke-width:1" />
<polyline points="483.54,298.161 537.773,319.795 604.347,372.024 681.506,413.482 755.8,440.98 817.998,453.784 860.441,453.517 878.622,443.638 " style="fill:none;stroke:black;stroke-width:1" />
<polyline points="450.145,272.674 489.253,287.735 " style="fill:none;stroke:black;stroke-width:1" />
<polyline points="444.041,275.087 483.532,298.156 " style="fill:none;stroke:black;stroke-width:1" />
<polyline points="440.077,281.492 480.814,308.252 532.634,367.238 604.473,418.896 685.816,457.563 761.579,480.445 822.136,487.76 860.368,482.239 870.973,466.608 " style="fill:none;stroke:black;stroke-width:1" />
<polyline points="419.443,252.674 444.034,275.08 " style="fill:none;stroke:black;stroke-width:1" />
<polyline points="419.443,252.674 415.34,255.196 410.812,260.942 406.681,269.702 392.332,310.015 379.199,349.092 402.638,416.371 450.038,480.445 521.156,498.441 604.873,504.971 689.088,498.441 761.579,480.445 817.998,453.784 855.802,421.39 873.981,385.935 873.363,369.783 " style="fill:none;stroke:black;stroke-width:1" />
<polyline points="415.34,255.196 440.07,281.485 " style="fill:none;stroke:black;stroke-width:1" />
<polyline points="410.812,260.942 436.46,290.976 471.344,353.997 527.901,413.482 604.642,463.574 689.088,498.441 764.798,515.979 822.13,517.55 852.953,505.009 " style="fill:none;stroke:black;stroke-width:1" />
<polyline points="409.649,233.731 410.462,214.202 409.642,209.852 406.788,208.398 401.446,233.021 410.809,260.933 " style="fill:none;stroke:black;stroke-width:1" />
<polyline points="405.701,231.037 415.336,255.187 " style="fill:none;stroke:black;stroke-width:1" />
<polyline points="409.642,209.852 405.703,231.028 " style="fill:none;stroke:black;stroke-width:1" />
<polyline points="424.85,193.264 409.649,209.844 " style="fill:none;stroke:black;stroke-width:1" />
<polyline points="448.138,182.112 424.859,193.26 " style="fill:none;stroke:black;stroke-width:1" />
<polyline points="481.258,167.812 482.398,161.709 481.9,157.538 480.228,155.526 477.859,155.875 " style="fill:none;stroke:black;stroke-width:1" />
<polyline points="470.576,172.43 469.252,176.971 " style="fill:none;stroke:black;stroke-width:1" />
<polyline points="776.223,183.772 767.799,187.854 " style="fill:none;stroke:black;stroke-width:1" />
<polyline points="803.626,237.084 794.284,239.07 " style="fill:none;stroke:black;stroke-width:1" />
<polyline points="668.806,605.908 667.325,607.961 666.768,611.007 " style="fill:none;stroke:black;stroke-width:1" />
<polyline points="637.841,181.305 633.952,170.538 " style="fill:none;stroke:black;stroke-width:1" />
<polyline points="583.067,170.857 579.554,181.305 580.279,184.332 582.939,187.059 587.303,189.375 593.127,191.168 600.15,192.325 608.098,192.735 616.09,192.325 623.235,191.168 629.246,189.375 633.854,187.059 636.8,184.332 637.841,181.305 636.832,178.309 633.999,170.48 " style="fill:none;stroke:black;stroke-width:1" />
<polyline points="662.026,130.469 659.949,125.399 654.523,120.963 643.895,114.658 637.559,111.845 629.374,109.706 619.681,108.344 608.792,107.865 597.846,108.344 587.99,109.706 579.55,111.845 572.879,114.658 562.714,120.963 556.769,125.399 554.1,130.469 555.195,135.635 561.147,147.195 565.403,151.447 577.469,162.764 590.168,176.442 595.173,177.948 601.206,178.918 608.035,179.261 614.901,178.918 621.039,177.948 626.206,176.442 630.172,174.495 632.717,172.198 642.06,159.626 650.004,151.447 654.743,147.195 660.327,135.635 662.026,130.469 649.53,121.895 607.915,118.627 572.879,114.658 556.769,125.399 " style="fill:none;stroke:black;stroke-width:1" />
<polyline points="561.147,147.195 561.147,147.195 " style="fill:none;stroke:black;stroke-width:1" />
<polyline points="577.469,162.764 586.411,174.495 590.168,176.442 593.127,191.168 593.654,209.779 583.643,229.687 571.878,250.963 560.428,272.062 551.75,290.9 549.984,298.646 " style="fill:none;stroke:black;stroke-width:1" />
<polyline points="435.123,262.359 422.335,242.658 422.799,221.418 435.941,201.506 444.035,194.264 465.802,178.475 494.97,165.797 529.881,156.411 565.116,151.164 " style="fill:none;stroke:black;stroke-width:1" />
<polyline points="651.5,150.374 655.046,150.544 693.868,156.411 727.856,165.797 755.777,178.475 775.993,194.264 784.382,201.506 795.599,221.418 794.009,242.658 780.717,260.481 " style="fill:none;stroke:black;stroke-width:1" />
<polyline points="532.165,296.167 505.714,281.972 469.354,268.505 444.321,251.747 431.625,232.888 431.781,212.983 444.035,194.264 484.603,177.049 509.651,166.036 539.905,157.843 567.769,153.672 " style="fill:none;stroke:black;stroke-width:1" />
<polyline points="649.13,152.702 649.17,152.704 682.991,157.843 712.429,166.036 736.381,177.049 753.427,190.677 761.802,206.712 759.589,223.619 746.536,239.501 723.32,253.505 690.999,264.685 651.096,272.062 605.63,274.706 560.428,272.062 521.259,264.685 490.051,253.505 468.23,239.501 456.758,223.619 456.228,206.712 466.2,190.677 484.603,177.049 530.273,169.583 554.07,163.037 574.461,159.945 " style="fill:none;stroke:black;stroke-width:1" />
<polyline points="642.534,159.162 667.703,163.037 690.841,169.583 709.41,178.322 722.303,189.042 728.197,201.523 725.772,214.531 715.052,226.611 696.71,237.152 671.65,245.494 641.048,250.963 606.365,252.916 571.878,250.963 541.827,245.494 517.606,237.152 500.324,226.611 490.82,214.531 489.704,201.523 496.854,189.042 510.825,178.322 530.273,169.583 569.883,169.191 582.564,170.22 " style="fill:none;stroke:black;stroke-width:1" />
<polyline points="635.01,173.268 644.873,176.154 652.683,180.014 657.815,184.662 659.765,189.957 658.132,195.346 653.114,200.238 645.106,204.419 634.546,207.672 621.916,209.779 607.746,210.527 593.654,209.779 581.241,207.672 571.016,204.419 563.439,200.238 558.924,195.346 557.846,189.957 560.342,184.662 565.953,180.014 574.16,176.154 582.034,173.918 " style="fill:none;stroke:black;stroke-width:1" />
<polyline points="634.983,173.186 650.645,169.191 667.703,163.037 682.991,157.843 693.868,156.411 712.429,166.036 727.856,165.797 " style="fill:none;stroke:black;stroke-width:1" />
<polyline points="775.993,194.264 786.406,212.983 795.599,221.418 784.604,232.888 770.055,251.747 743.374,268.505 705.69,281.972 658.776,290.9 605.105,294.109 551.75,290.9 505.714,281.972 490.051,253.505 500.324,226.611 527.034,205.25 557.846,189.957 580.494,178.503 " style="fill:none;stroke:black;stroke-width:1" />
<polyline points="654.523,120.963 654.523,120.963 " style="fill:none;stroke:black;stroke-width:1" />
<polyline points="636.054,176.145 652.683,180.014 679.744,180.086 709.41,178.322 736.381,177.049 755.777,178.475 " style="fill:none;stroke:black;stroke-width:1" />
<polyline points="784.382,201.506 786.406,212.983 784.604,232.888 794.009,242.658 770.055,251.747 723.32,253.505 671.65,245.494 630.734,229.687 607.746,210.527 600.15,192.325 595.173,177.948 589.646,167.495 582.174,157.888 567.917,144.317 559.927,140.318 555.195,135.635 566.381,121.895 568.354,118.042 572.871,114.664 " style="fill:none;stroke:black;stroke-width:1" />
<polyline points="632.717,172.198 636.8,184.332 658.132,195.346 689.828,205.25 725.772,214.531 759.589,223.619 784.604,232.888 746.536,239.501 696.71,237.152 651.68,226.073 621.916,209.779 608.098,192.735 601.206,178.918 598.083,168.827 593.881,159.708 591.913,149.438 585.52,134.664 577.202,132.336 571.021,129.333 567.312,125.804 566.381,121.895 607.915,118.627 643.895,114.658 648.017,118.042 659.949,125.399 " style="fill:none;stroke:black;stroke-width:1" />
<polyline points="635.458,174.493 644.873,176.154 666.899,173.877 690.841,169.583 712.429,166.036 709.41,178.322 688.414,187.63 659.765,189.957 636.8,184.332 630.172,174.495 633.067,165.431 632.499,157.888 635.404,147.427 628.87,134.664 607.915,118.627 597.846,108.344 " style="fill:none;stroke:black;stroke-width:1" />
<polyline points="562.714,120.963 562.714,120.963 " style="fill:none;stroke:black;stroke-width:1" />
<polyline points="574.965,160.417 586.411,174.495 587.303,189.375 581.241,207.672 583.643,229.687 606.365,252.916 651.096,272.062 705.69,281.972 738.385,281.153 " style="fill:none;stroke:black;stroke-width:1" />
<polyline points="748.853,277.35 743.374,268.505 723.32,253.505 696.71,237.152 669.027,220.524 645.106,204.419 623.235,191.168 614.901,178.918 607.656,169.298 593.881,159.708 578.738,147.427 567.917,144.317 571.021,129.333 607.915,118.627 637.559,111.845 " style="fill:none;stroke:black;stroke-width:1" />
<polyline points="567.352,153.279 529.881,156.411 " style="fill:none;stroke:black;stroke-width:1" />
<polyline points="435.941,201.506 435.941,201.506 " style="fill:none;stroke:black;stroke-width:1" />
<polyline points="465.802,178.475 509.651,166.036 554.07,163.037 578.715,165.271 " style="fill:none;stroke:black;stroke-width:1" />
<polyline points="632.717,172.198 637.841,181.305 659.765,189.957 692.037,196.313 728.197,201.523 761.802,206.712 786.406,212.983 759.589,223.619 715.052,226.611 669.027,220.524 634.546,207.672 616.09,192.325 608.035,179.261 598.083,168.827 582.174,157.888 572.54,155.073 565.403,151.447 555.195,135.635 567.312,125.804 607.915,118.627 648.017,118.042 654.523,120.963 " style="fill:none;stroke:black;stroke-width:1" />
<polyline points="494.97,165.797 539.905,157.843 573.127,158.7 " style="fill:none;stroke:black;stroke-width:1" />
<polyline points="636.585,166.993 650.645,169.191 666.899,173.877 679.744,180.086 688.414,187.63 692.037,196.313 689.828,205.25 681.97,213.448 669.027,220.524 651.68,226.073 630.734,229.687 607.123,230.973 583.643,229.687 563.064,226.073 546.281,220.524 534.059,213.448 527.034,205.25 525.734,196.313 530.239,187.63 539.676,180.086 553.153,173.877 569.883,169.191 580.493,167.558 " style="fill:none;stroke:black;stroke-width:1" />
<polyline points="648.97,152.854 649.17,152.704 655.046,150.544 682.991,157.843 690.841,169.583 679.744,180.086 657.815,184.662 637.851,181.307 " style="fill:none;stroke:black;stroke-width:1" />
<polyline points="630.172,174.495 633.854,187.059 653.114,200.238 681.97,213.448 715.052,226.611 746.536,239.501 770.055,251.747 778.296,262.026 " style="fill:none;stroke:black;stroke-width:1" />
<polyline points="776.404,263.251 743.374,268.505 690.999,264.685 641.048,250.963 607.123,230.973 593.654,209.779 600.15,192.325 601.206,178.918 589.646,167.495 572.54,155.073 559.927,140.318 567.307,125.813 " style="fill:none;stroke:black;stroke-width:1" />
<polyline points="626.206,176.442 633.854,187.059 658.132,195.346 692.037,196.313 722.303,189.042 753.427,190.677 775.993,194.264 761.802,206.712 725.772,214.531 681.97,213.448 645.106,204.419 629.246,189.375 621.039,177.948 617.281,168.827 607.196,160.352 591.913,149.438 578.738,147.427 577.202,132.336 607.915,118.627 629.374,109.706 " style="fill:none;stroke:black;stroke-width:1" />
<polyline points="626.206,176.442 629.246,189.375 653.114,200.238 689.828,205.25 728.197,201.523 753.427,190.677 755.777,178.475 " style="fill:none;stroke:black;stroke-width:1" />
<polyline points="529.881,156.411 539.905,157.843 554.07,163.037 569.883,169.191 582.454,172.659 " style="fill:none;stroke:black;stroke-width:1" />
<polyline points="579.554,181.305 558.924,195.346 534.059,213.448 500.324,226.611 468.23,239.501 444.321,251.747 435.583,262.666 " style="fill:none;stroke:black;stroke-width:1" />
<polyline points="435.401,262.548 431.625,232.888 456.228,206.712 496.854,189.042 539.676,180.086 574.16,176.154 581.755,174.739 " style="fill:none;stroke:black;stroke-width:1" />
<polyline points="621.039,177.948 623.235,191.168 634.546,207.672 651.68,226.073 671.65,245.494 690.999,264.685 705.69,281.972 709.088,290.015 " style="fill:none;stroke:black;stroke-width:1" />
<polyline points="690.605,293.583 658.776,290.9 605.63,274.706 571.878,250.963 563.064,226.073 571.016,204.419 582.939,187.059 586.411,174.495 584.113,172.198 574.863,160.32 " style="fill:none;stroke:black;stroke-width:1" />
<polyline points="561.147,147.195 561.147,147.195 " style="fill:none;stroke:black;stroke-width:1" />
<polyline points="554.1,130.469 568.354,118.042 607.915,118.627 648.134,125.804 662.026,130.469 " style="fill:none;stroke:black;stroke-width:1" />
<polyline points="654.743,147.195 642.06,159.626 638.565,162.764 630.178,174.487 " style="fill:none;stroke:black;stroke-width:1" />
<polyline points="614.901,178.918 616.09,192.325 621.916,209.779 630.734,229.687 641.048,250.963 651.096,272.062 658.776,290.9 660.412,298.57 " style="fill:none;stroke:black;stroke-width:1" />
<polyline points="636.078,300.039 605.105,294.109 560.428,272.062 541.827,245.494 546.281,220.524 563.439,200.238 580.279,184.332 584.113,172.198 " style="fill:none;stroke:black;stroke-width:1" />
<polyline points="562.714,120.963 562.714,120.963 " style="fill:none;stroke:black;stroke-width:1" />
<polyline points="579.55,111.845 607.915,118.627 644.003,129.333 660.327,135.635 " style="fill:none;stroke:black;stroke-width:1" />
<polyline points="636.832,178.309 657.815,184.662 688.414,187.63 722.303,189.042 736.381,177.049 727.856,165.797 " style="fill:none;stroke:black;stroke-width:1" />
<polyline points="693.868,156.411 693.868,156.411 " style="fill:none;stroke:black;stroke-width:1" />
<polyline points="655.046,150.544 655.046,150.544 " style="fill:none;stroke:black;stroke-width:1" />
<polyline points="641.853,159.913 650.645,169.191 644.873,176.154 635.909,175.748 " style="fill:none;stroke:black;stroke-width:1" />
<polyline points="584.113,172.198 582.939,187.059 563.439,200.238 534.059,213.448 517.606,237.152 490.051,253.505 469.354,268.505 463.581,277.733 " style="fill:none;stroke:black;stroke-width:1" />
<polyline points="458.693,275.887 444.321,251.747 456.758,223.619 489.704,201.523 530.239,187.63 565.953,180.014 581.218,176.335 " style="fill:none;stroke:black;stroke-width:1" />
<polyline points="608.035,179.261 608.098,192.735 607.746,210.527 607.123,230.973 606.365,252.916 605.63,274.706 605.105,294.109 605.044,301.91 " style="fill:none;stroke:black;stroke-width:1" />
<polyline points="581.027,300.534 551.75,290.9 521.259,264.685 517.606,237.152 546.281,220.524 571.016,204.419 587.303,189.375 590.168,176.442 582.673,165.431 572.54,155.073 567.917,144.317 577.196,132.344 " style="fill:none;stroke:black;stroke-width:1" />
<polyline points="595.173,177.948 593.127,191.168 581.241,207.672 563.064,226.073 541.827,245.494 521.259,264.685 505.714,281.972 502.119,290.257 " style="fill:none;stroke:black;stroke-width:1" />
<polyline points="491.845,288.245 469.354,268.505 468.23,239.501 490.82,214.531 525.734,196.313 560.342,184.662 580.524,178.418 " style="fill:none;stroke:black;stroke-width:1" />
<polyline points="587.99,109.706 607.915,118.627 637.464,132.336 655.047,140.318 660.327,135.635 648.134,125.804 649.53,121.895 648.021,118.052 " style="fill:none;stroke:black;stroke-width:1" />
<polyline points="583.18,171.002 580.279,184.332 558.924,195.346 527.034,205.25 490.82,214.531 456.758,223.619 431.625,232.888 422.335,242.658 431.781,212.983 466.2,190.677 510.825,178.322 553.153,173.877 582.249,173.267 " style="fill:none;stroke:black;stroke-width:1" />
<polyline points="619.681,108.344 619.681,108.344 " style="fill:none;stroke:black;stroke-width:1" />
<polyline points="659.949,125.399 649.54,121.899 " style="fill:none;stroke:black;stroke-width:1" />
<polyline points="579.554,181.305 557.846,189.957 525.734,196.313 489.704,201.523 456.228,206.712 431.781,212.983 422.799,221.418 444.035,194.264 466.2,190.677 496.854,189.042 530.239,187.63 560.342,184.662 581.072,176.78 " style="fill:none;stroke:black;stroke-width:1" />
<polyline points="581.492,175.526 565.953,180.014 539.676,180.086 510.825,178.322 484.603,177.049 465.802,178.475 " style="fill:none;stroke:black;stroke-width:1" />
<polyline points="494.97,165.797 509.651,166.036 530.273,169.583 553.153,173.877 574.16,176.154 581.836,174.505 " style="fill:none;stroke:black;stroke-width:1" />
<polyline points="608.792,107.865 608.792,107.865 " style="fill:none;stroke:black;stroke-width:1" />
<polyline points="649.13,152.699 649.17,152.704 667.703,163.037 666.899,173.877 652.683,180.014 636.832,178.309 633.959,170.536 " style="fill:none;stroke:black;stroke-width:1" />
<polyline points="654.743,147.195 655.047,140.318 644.003,129.333 637.464,132.336 628.87,134.664 618.602,136.167 607.073,136.699 595.608,136.167 585.52,134.664 578.738,147.427 582.174,157.888 593.881,159.708 607.196,160.352 620.584,159.708 632.499,157.888 642.454,155.073 650.004,151.447 655.047,140.318 646.589,144.317 635.404,147.427 621.994,149.438 606.912,150.151 591.913,149.438 595.608,136.167 607.915,118.627 619.673,108.35 " style="fill:none;stroke:black;stroke-width:1" />
<polyline points="343.078,396.261 313.952,389.484 342.364,402.497 " style="fill:none;stroke:black;stroke-width:1" />
<polyline points="313.952,389.484 343.078,396.261 " style="fill:none;stroke:black;stroke-width:1" />
<polyline points="341.438,438.271 309.73,425.157 272.637,404.802 241.163,381.689 216.96,357.73 200.354,332.443 191.411,305.99 192.907,283.04 194.771,274.26 209.453,258.141 217.276,252.043 244.306,242.617 283.682,237.75 335.031,235.951 388.177,235.734 " style="fill:none;stroke:black;stroke-width:1" />
<polyline points="374.512,275.539 335.216,275.658 295.599,276.657 264.474,279.367 255.501,279.5 232.052,285.718 218.964,295.898 216.637,310.925 222.874,329.933 235.241,350.65 253.689,371.851 278.191,392.386 308.764,411.189 341.064,425.317 " style="fill:none;stroke:black;stroke-width:1" />
<polyline points="241.163,381.689 241.163,381.689 " style="fill:none;stroke:black;stroke-width:1" />
<polyline points="194.771,274.26 194.771,274.26 " style="fill:none;stroke:black;stroke-width:1" />
<polyline points="217.276,252.043 217.276,252.043 " style="fill:none;stroke:black;stroke-width:1" />
<polyline points="387.842,236.539 330.913,241.266 277.856,243.153 237.247,248.259 209.453,258.141 192.907,283.04 196.203,310.925 204.446,335.404 219.971,359.513 242.716,382.789 272.637,404.802 308.527,420.014 341.305,433.912 " style="fill:none;stroke:black;stroke-width:1" />
<polyline points="341.336,434.845 309.73,425.157 " style="fill:none;stroke:black;stroke-width:1" />
<polyline points="217.276,252.043 217.276,252.043 " style="fill:none;stroke:black;stroke-width:1" />
<polyline points="335.031,235.951 277.856,243.153 235.165,257.825 207.549,267.407 192.907,283.04 197.934,290.102 205.43,312.586 212.683,334.365 226.666,356.818 247.32,379.094 274.604,400.403 308.527,420.014 341.092,426.394 " style="fill:none;stroke:black;stroke-width:1" />
<polyline points="341.017,414.139 310.551,400.412 282.708,382.294 260.471,362.422 243.812,342.119 232.751,322.806 227.32,305.99 218.964,295.898 207.469,294.635 197.934,290.102 207.549,267.407 209.453,258.141 244.306,242.617 " style="fill:none;stroke:black;stroke-width:1" />
<polyline points="283.682,237.75 237.247,248.259 207.549,267.407 212.215,275.938 221.187,282.45 232.052,285.718 242.383,284.626 264.474,279.367 288.83,276.296 328.74,269.733 381.488,261.939 " style="fill:none;stroke:black;stroke-width:1" />
<polyline points="381.851,260.922 327.388,261.133 277.337,262.787 238.806,267.264 212.215,275.938 197.934,290.102 196.203,310.925 212.683,334.365 235.241,350.65 260.471,362.422 287.435,371.736 317.563,383.043 343.347,393.922 " style="fill:none;stroke:black;stroke-width:1" />
<polyline points="343.378,393.673 319.945,383.276 290.371,365.179 266.299,352.236 243.812,342.119 222.874,329.933 205.43,312.586 196.203,310.925 191.411,305.99 " style="fill:none;stroke:black;stroke-width:1" />
<polyline points="194.771,274.26 194.771,274.26 " style="fill:none;stroke:black;stroke-width:1" />
<polyline points="191.411,305.99 204.446,335.404 226.666,356.818 253.689,371.851 282.708,382.294 313.952,389.484 317.563,383.043 319.945,383.276 " style="fill:none;stroke:black;stroke-width:1" />
<polyline points="200.354,332.443 219.971,359.513 247.32,379.094 278.191,392.386 310.551,400.412 308.764,411.189 308.527,420.014 309.73,425.157 " style="fill:none;stroke:black;stroke-width:1" />
<polyline points="242.383,284.626 229.846,293.246 218.964,295.898 221.187,282.45 238.806,267.264 275.434,252.876 330.913,241.266 385.974,241.039 " style="fill:none;stroke:black;stroke-width:1" />
<polyline points="385.746,242.521 327.967,251.046 277.337,262.787 246.263,274.998 221.187,282.45 207.469,294.635 205.43,312.586 216.637,310.925 227.32,305.99 235.027,297.911 237.165,288.214 " style="fill:none;stroke:black;stroke-width:1" />
<polyline points="319.945,383.276 290.502,364.89 " style="fill:none;stroke:black;stroke-width:1" />
<polyline points="335.216,275.658 375.924,275.051 " style="fill:none;stroke:black;stroke-width:1" />
<polyline points="376.173,274.967 331.526,275.113 288.83,276.296 255.501,279.5 242.383,284.626 " style="fill:none;stroke:black;stroke-width:1" />
<polyline points="229.846,293.246 227.32,305.99 240.078,313.762 252.454,325.59 268.68,345.593 290.371,365.179 317.563,383.043 343.254,394.724 " style="fill:none;stroke:black;stroke-width:1" />
<polyline points="342.215,403.751 310.551,400.412 341.017,414.139 " style="fill:none;stroke:black;stroke-width:1" />
<polyline points="310.551,400.412 342.215,403.751 " style="fill:none;stroke:black;stroke-width:1" />
<polyline points="342.364,402.497 313.952,389.484 310.554,400.402 " style="fill:none;stroke:black;stroke-width:1" />
<polyline points="310.551,400.412 313.952,389.484 287.435,371.736 266.299,352.236 250.509,332.406 240.078,313.762 235.027,297.911 " style="fill:none;stroke:black;stroke-width:1" />
<polyline points="295.599,276.657 331.526,275.113 378.459,270.234 " style="fill:none;stroke:black;stroke-width:1" />
<polyline points="378.783,269.554 328.74,269.733 282.271,271.153 246.263,274.998 232.052,285.718 229.846,293.246 235.027,297.911 241.706,306.567 252.454,325.59 " style="fill:none;stroke:black;stroke-width:1" />
<polyline points="264.474,279.367 264.474,279.367 " style="fill:none;stroke:black;stroke-width:1" />
<polyline points="244.306,242.617 237.247,248.259 235.165,257.825 238.806,267.264 246.263,274.998 255.501,279.5 282.271,271.153 327.388,261.133 384.155,252.098 " style="fill:none;stroke:black;stroke-width:1" />
<polyline points="384.481,250.817 327.967,251.046 275.434,252.876 235.165,257.825 212.215,275.938 207.469,294.635 216.637,310.925 232.751,322.806 250.509,332.406 268.68,345.593 290.502,364.89 " style="fill:none;stroke:black;stroke-width:1" />
<polyline points="241.706,306.567 236.641,290.593 " style="fill:none;stroke:black;stroke-width:1" />
<polyline points="200.354,332.443 204.446,335.404 212.683,334.365 222.874,329.933 232.751,322.806 240.078,313.762 241.706,306.567 " style="fill:none;stroke:black;stroke-width:1" />
<polyline points="216.96,357.73 242.716,382.789 274.604,400.403 308.764,411.189 340.902,415.138 " style="fill:none;stroke:black;stroke-width:1" />
<polyline points="335.216,275.658 335.216,275.658 " style="fill:none;stroke:black;stroke-width:1" />
<polyline points="335.031,235.951 330.913,241.266 327.967,251.046 327.388,261.133 328.74,269.733 331.526,275.113 335.206,275.656 " style="fill:none;stroke:black;stroke-width:1" />
<polyline points="295.599,276.657 295.599,276.657 " style="fill:none;stroke:black;stroke-width:1" />
<polyline points="283.682,237.75 277.856,243.153 275.434,252.876 277.337,262.787 282.271,271.153 288.83,276.296 295.589,276.656 " style="fill:none;stroke:black;stroke-width:1" />
<polyline points="243.812,342.119 250.509,332.406 252.454,325.59 " style="fill:none;stroke:black;stroke-width:1" />
<polyline points="216.96,357.73 219.971,359.513 226.666,356.818 235.241,350.65 243.805,342.127 " style="fill:none;stroke:black;stroke-width:1" />
<polyline points="260.471,362.422 266.299,352.236 268.68,345.593 " style="fill:none;stroke:black;stroke-width:1" />
<polyline points="241.163,381.689 242.716,382.789 247.32,379.094 253.689,371.851 260.466,362.43 " style="fill:none;stroke:black;stroke-width:1" />
<polyline points="282.708,382.294 287.435,371.736 290.371,365.179 290.502,364.89 " style="fill:none;stroke:black;stroke-width:1" />
<polyline points="272.637,404.802 274.604,400.403 278.191,392.386 282.704,382.303 " style="fill:none;stroke:black;stroke-width:1" />
<polyline points="949.789,313.53 941.865,297.911 939.459,289.214 " style="fill:none;stroke:black;stroke-width:1" />
<polyline points="980.432,350.771 977.3,350.608 969.745,342.68 959.832,329.411 949.794,313.539 " style="fill:none;stroke:black;stroke-width:1" />
<polyline points="963.411,282.415 955.842,271.193 954.837,263.907 " style="fill:none;stroke:black;stroke-width:1" />
<polyline points="1000.61,303.619 995.463,304.888 985.843,300.835 974.28,292.834 963.419,282.422 " style="fill:none;stroke:black;stroke-width:1" />
<polyline points="448.138,182.112 481.249,167.816 " style="fill:none;stroke:black;stroke-width:1" />
<polyline points="1024.77,218.612 1017.52,214.822 " style="fill:none;stroke:black;stroke-width:1" />
<polyline points="1042,220.441 1042.82,220.896 1024.78,218.614 " style="fill:none;stroke:black;stroke-width:1" />
<polyline points="1033.13,205.589 1033.72,207.334 1030.21,210.723 1022.01,215.584 1019,213.34 1017.52,214.822 1020.79,210.365 1018.92,208.963 1010.6,214.822 1014.17,209.252 1033.12,205.591 " style="fill:none;stroke:black;stroke-width:1" />
<polyline points="642.06,159.626 642.06,159.626 " style="fill:none;stroke:black;stroke-width:1" />
<polyline points="577.469,162.764 582.673,165.431 589.646,167.495 598.083,168.827 607.656,169.298 617.281,168.827 625.865,167.495 633.067,165.431 638.565,162.764 650.004,151.447 646.589,144.317 637.47,132.344 " style="fill:none;stroke:black;stroke-width:1" />
<polyline points="642.06,159.626 642.06,159.626 " style="fill:none;stroke:black;stroke-width:1" />
<polyline points="644.003,129.333 648.126,125.811 " style="fill:none;stroke:black;stroke-width:1" />
<polyline points="638.565,162.764 632.722,172.19 " style="fill:none;stroke:black;stroke-width:1" />
<polyline points="646.589,144.317 642.454,155.073 638.57,162.755 " style="fill:none;stroke:black;stroke-width:1" />
<polyline points="642.454,155.073 633.067,165.431 626.206,176.442 625.865,167.495 620.584,159.708 606.912,150.151 595.614,136.174 " style="fill:none;stroke:black;stroke-width:1" />
<polyline points="628.87,134.664 646.58,144.313 " style="fill:none;stroke:black;stroke-width:1" />
<polyline points="635.404,147.427 642.447,155.066 " style="fill:none;stroke:black;stroke-width:1" />
<polyline points="632.499,157.888 625.865,167.495 621.043,177.939 " style="fill:none;stroke:black;stroke-width:1" />
<polyline points="607.915,118.627 618.602,136.167 621.994,149.438 620.584,159.708 617.281,168.827 614.904,178.908 " style="fill:none;stroke:black;stroke-width:1" />
<polyline points="618.602,136.167 635.396,147.421 " style="fill:none;stroke:black;stroke-width:1" />
<polyline points="621.994,149.438 632.491,157.882 " style="fill:none;stroke:black;stroke-width:1" />
<polyline points="607.915,118.627 607.073,136.699 606.912,150.151 607.196,160.352 607.656,169.298 608.035,179.251 " style="fill:none;stroke:black;stroke-width:1" />
<polyline points="607.073,136.699 621.987,149.432 " style="fill:none;stroke:black;stroke-width:1" />
<polyline points="607.915,118.627 585.528,134.658 " style="fill:none;stroke:black;stroke-width:1" />
<polyline points="582.673,165.431 595.166,177.941 " style="fill:none;stroke:black;stroke-width:1" />
<polyline points="571.021,129.333 559.927,140.318 565.403,151.447 582.665,165.424 " style="fill:none;stroke:black;stroke-width:1" />
<polyline points="566.381,121.895 554.1,130.469 " style="fill:none;stroke:black;stroke-width:1" />
<polyline points="568.354,118.042 556.769,125.399 " style="fill:none;stroke:black;stroke-width:1" />
<polyline points="587.99,109.706 587.99,109.706 " style="fill:none;stroke:black;stroke-width:1" />
<polyline points="607.915,118.627 608.791,107.875 " style="fill:none;stroke:black;stroke-width:1" />
</svg>
