<svg xmlns="http://www.w3.org/2000/svg" width="220mm" height="220mm" viewBox="0 0 220 220">
<polyline points="143.39,80.9807 143.39,80.9807 " style="fill:none;stroke:black;stroke-width:0.5" />
<polyline points="64.3134,80.9807 66.6751,76.4244 71.2847,72.5235 77.6928,69.3519 85.5265,66.9812 93.2899,65.6881 " style="fill:none;stroke:black;stroke-width:0.5" />
<polyline points="114.145,65.4909 123.004,66.9812 130.698,69.3519 136.918,72.5235 141.297,76.4244 143.39,80.9807 " style="fill:none;stroke:black;stroke-width:0.5" />
<polyline points="142.849,84.8939 143.39,80.9807 143.511,80.1333 141.922,75.242 138.119,71.4029 131.656,68.1357 123.677,65.6961 114.491,64.1618 114.091,64.1407 " style="fill:none;stroke:black;stroke-width:0.5" />
<polyline points="93.3182,64.2989 84.8697,65.6961 76.7463,68.1357 70.0883,71.4029 65.2825,75.4263 64.4357,76.1499 63.6444,77.4264 61.0114,82.389 59.2503,86.2276 " style="fill:none;stroke:black;stroke-width:0.5" />
<polyline points="56.1855,93.1362 55.1309,95.5712 52.7414,101.861 50.955,107.892 49.9417,113.627 49.8659,119.029 49.9288,126.837 51.3773,131.545 55.3054,138.88 58.0527,142.163 65.2689,148.379 68.169,150.195 77.7786,154.83 79.871,155.54 81.4475,155.97 92.1977,159.166 103.801,160.738 115.313,159.824 125.431,157.267 133.665,153.373 134.87,152.381 " style="fill:none;stroke:black;stroke-width:0.5" />
<polyline points="73.5994,152.815 74.2539,153.373 82.32,157.267 92.3274,159.824 103.801,160.738 " style="fill:none;stroke:black;stroke-width:0.5" />
<polyline points="125.431,157.267 125.431,157.267 " style="fill:none;stroke:black;stroke-width:0.5" />
<polyline points="133.665,153.373 133.665,153.373 " style="fill:none;stroke:black;stroke-width:0.5" />
<polyline points="156.679,131.545 158.036,126.837 158.122,125.299 " style="fill:none;stroke:black;stroke-width:0.5" />
<polyline points="156.582,105.933 155.309,101.861 152.814,95.5712 149.889,89.0657 146.715,82.389 144.373,77.4264 143.553,76.1499 138.87,72.0244 138.119,71.4029 " style="fill:none;stroke:black;stroke-width:0.5" />
<polyline points="64.4357,76.1499 61.0114,82.389 58.2172,94.8429 55.3371,101.905 52.8866,108.708 51.0504,115.18 50.0066,121.247 49.9288,126.837 55.3054,138.88 65.2689,148.379 77.7786,154.83 90.9642,158.364 91.8395,158.616 103.788,160.088 115.313,159.824 " style="fill:none;stroke:black;stroke-width:0.5" />
<polyline points="140.596,85.142 142.867,84.7596 " style="fill:none;stroke:black;stroke-width:0.5" />
<polyline points="147.3,83.5816 149.889,89.0657 149.295,94.8429 152.265,101.905 154.806,108.708 156.732,115.18 157.867,121.247 158.036,126.837 153.692,134.236 152.412,138.88 149.772,142.163 142.274,148.379 139.499,150.195 129.683,154.83 127.717,155.54 126.234,155.97 115.727,158.616 103.763,159.562 91.8395,158.616 81.4475,155.97 " style="fill:none;stroke:black;stroke-width:0.5" />
<polyline points="68.169,150.195 68.169,150.195 " style="fill:none;stroke:black;stroke-width:0.5" />
<polyline points="58.0527,142.163 58.0527,142.163 " style="fill:none;stroke:black;stroke-width:0.5" />
<polyline points="51.3773,131.545 51.3773,131.545 " style="fill:none;stroke:black;stroke-width:0.5" />
<polyline points="49.8659,119.029 49.8659,119.029 " style="fill:none;stroke:black;stroke-width:0.5" />
<polyline points="63.6444,77.4264 63.6444,77.4264 " style="fill:none;stroke:black;stroke-width:0.5" />
<polyline points="70.0883,71.4029 77.257,68.0959 85.2223,65.7025 93.2982,64.3664 " style="fill:none;stroke:black;stroke-width:0.5" />
<polyline points="114.111,64.187 114.291,64.1965 123.304,65.7025 131.127,68.0959 137.458,71.2995 141.922,75.242 144.064,79.8503 143.41,84.6734 139.932,89.1716 133.836,93.1117 125.412,96.2398 115.056,98.2956 " style="fill:none;stroke:black;stroke-width:0.5" />
<polyline points="91.58,98.2984 81.6346,96.3007 81.2962,96.2398 73.0589,93.1117 67.1971,89.1716 63.9868,84.6734 63.6202,79.8503 66.0368,75.242 70.7356,71.2995 77.257,68.0959 85.4645,66.1487 93.1061,64.8813 " style="fill:none;stroke:black;stroke-width:0.5" />
<polyline points="114.278,64.6785 123.056,66.1487 130.773,68.5164 137.014,71.6843 141.409,75.5811 143.511,80.1333 142.853,84.8947 " style="fill:none;stroke:black;stroke-width:0.5" />
<polyline points="139.414,89.3326 142.853,84.8947 144.064,79.8503 142.686,75.4263 138.87,72.0244 " style="fill:none;stroke:black;stroke-width:0.5" />
<polyline points="131.656,68.1357 131.656,68.1357 " style="fill:none;stroke:black;stroke-width:0.5" />
<polyline points="63.6444,77.4264 63.6444,77.4264 " style="fill:none;stroke:black;stroke-width:0.5" />
<polyline points="57.1251,93.1134 55.3371,101.905 56.7264,115.175 62.5876,128.198 72.9242,140.036 87.0501,149.601 103.479,155.32 118.583,156.648 129.683,154.83 " style="fill:none;stroke:black;stroke-width:0.5" />
<polyline points="139.499,150.195 139.499,150.195 " style="fill:none;stroke:black;stroke-width:0.5" />
<polyline points="149.772,142.163 149.772,142.163 " style="fill:none;stroke:black;stroke-width:0.5" />
<polyline points="58.0527,142.163 58.0527,142.163 " style="fill:none;stroke:black;stroke-width:0.5" />
<polyline points="79.871,155.54 91.8395,158.616 92.1977,159.166 92.3274,159.824 " style="fill:none;stroke:black;stroke-width:0.5" />
<polyline points="69.5781,90.5699 69.6234,90.3543 " style="fill:none;stroke:black;stroke-width:0.5" />
<polyline points="74.3807,73.3977 74.9383,71.7911 " style="fill:none;stroke:black;stroke-width:0.5" />
<polyline points="76.7463,68.1357 85.2223,65.7025 93.1166,64.8094 " style="fill:none;stroke:black;stroke-width:0.5" />
<polyline points="113.733,66.5385 114.256,66.6259 123.221,68.1429 131.002,70.5537 137.296,73.7802 141.732,77.7499 143.345,81.2701 " style="fill:none;stroke:black;stroke-width:0.5" />
<polyline points="143.353,81.2126 141.297,76.4244 137.014,71.6843 131.127,68.0959 123.677,65.6961 " style="fill:none;stroke:black;stroke-width:0.5" />
<polyline points="68.0235,88.1418 67.3576,88.806 " style="fill:none;stroke:black;stroke-width:0.5" />
<polyline points="50.955,107.892 50.0066,121.247 53.9223,134.236 55.3054,138.88 62.8886,145.39 75.6045,153.356 77.7786,154.83 89.8002,157.888 103.71,159.375 115.727,158.616 125.637,156.589 133.665,153.373 133.875,152.852 " style="fill:none;stroke:black;stroke-width:0.5" />
<polyline points="68.169,150.195 68.169,150.195 " style="fill:none;stroke:black;stroke-width:0.5" />
<polyline points="79.871,155.54 90.9642,158.364 103.763,159.562 115.418,159.166 125.431,157.267 125.637,156.589 126.234,155.97 " style="fill:none;stroke:black;stroke-width:0.5" />
<polyline points="81.4475,155.97 82.0902,156.589 92.3274,159.824 " style="fill:none;stroke:black;stroke-width:0.5" />
<polyline points="83.585,69.327 83.7585,68.6274 " style="fill:none;stroke:black;stroke-width:0.5" />
<polyline points="84.8697,65.6961 93.2974,64.3595 " style="fill:none;stroke:black;stroke-width:0.5" />
<polyline points="114.145,65.492 123.221,68.1429 123.004,66.9812 123.056,66.1487 123.304,65.7025 123.677,65.6961 " style="fill:none;stroke:black;stroke-width:0.5" />
<polyline points="124.916,68.6746 125.127,69.4268 " style="fill:none;stroke:black;stroke-width:0.5" />
<polyline points="82.32,157.267 78.0589,154.925 " style="fill:none;stroke:black;stroke-width:0.5" />
<polyline points="129.382,71.0492 130.835,70.5045 " style="fill:none;stroke:black;stroke-width:0.5" />
<polyline points="138.87,72.0244 138.87,72.0244 " style="fill:none;stroke:black;stroke-width:0.5" />
<polyline points="141.506,77.5526 142.109,78.9175 143.284,81.7442 " style="fill:none;stroke:black;stroke-width:0.5" />
<polyline points="139.746,79.564 142.109,78.9175 142.226,78.8404 " style="fill:none;stroke:black;stroke-width:0.5" />
<polyline points="144.373,77.4264 147.3,83.5816 " style="fill:none;stroke:black;stroke-width:0.5" />
<polyline points="185.625,80.7356 187.956,80.1775 191.156,79.9262 194.485,80.0004 197.202,80.4221 198.559,81.2159 200.848,80.5641 202.045,80.3959 202.054,80.6715 201.203,81.8571 199.972,82.6434 197.416,83.7119 " style="fill:none;stroke:black;stroke-width:0.5" />
<polyline points="158.07,126.379 165.391,124.265 173.827,117.076 178.57,108.141 182.259,98.7024 185.764,90.6701 190.476,84.7823 192.533,83.7784 193.749,82.9916 194.102,82.4774 198.216,82.1166 201.203,81.8571 201.184,81.4037 202.045,80.3959 200.306,79.3968 196.85,78.8786 192.627,78.8032 192.076,78.7981 187.806,79.1309 184.703,79.9036 183.385,80.3031 181.815,81.0826 176.689,85.5422 173.477,90.6259 170.688,95.6548 167.154,102.123 162.123,110.249 157.134,113.983 " style="fill:none;stroke:black;stroke-width:0.5" />
<polyline points="158.086,125.988 165.198,123.564 173.178,116.725 177.621,108.117 180.98,98.995 183.036,90.5383 186.206,84.5137 187.982,83.5772 189.217,82.8677 189.827,82.4332 194.102,82.4774 198.093,82.6434 199.972,82.6434 " style="fill:none;stroke:black;stroke-width:0.5" />
<polyline points="202.054,80.6715 202.054,80.6715 " style="fill:none;stroke:black;stroke-width:0.5" />
<polyline points="192.076,78.7981 192.076,78.7981 " style="fill:none;stroke:black;stroke-width:0.5" />
<polyline points="183.385,80.3031 180.996,82.389 176.291,86.8948 173.373,92.1809 170.8,97.4944 168.416,106.225 163.339,115.594 157.789,119.369 " style="fill:none;stroke:black;stroke-width:0.5" />
<polyline points="157.954,121.977 164.443,120.37 171.815,114.317 175.925,106.537 178.934,98.2072 183.036,90.5383 190.476,84.7823 194.542,84.5137 197.416,83.7119 " style="fill:none;stroke:black;stroke-width:0.5" />
<polyline points="201.203,81.8571 198.093,82.6434 193.749,82.9916 189.217,82.8677 185.548,82.2446 183.77,81.1017 182.477,81.5849 180.996,82.389 177.628,88.5373 174.607,94.501 172.06,100.691 168.416,106.225 162.123,110.249 156.796,111.093 " style="fill:none;stroke:black;stroke-width:0.5" />
<polyline points="157.382,116.821 163.339,115.594 170.099,110.559 173.92,103.887 176.634,96.6114 180.098,89.7909 182.723,83.7119 182.477,81.5849 183.385,80.3031 " style="fill:none;stroke:black;stroke-width:0.5" />
<polyline points="187.806,79.1309 192.627,78.8032 196.165,79.2423 199.288,79.6885 200.848,80.5641 199.998,81.3322 197.289,81.9345 " style="fill:none;stroke:black;stroke-width:0.5" />
<polyline points="185.269,81.1603 185.625,80.7356 185.974,80.1452 188.659,79.4999 192.339,79.1897 196.165,79.2423 196.85,78.8786 199.288,79.6885 200.306,79.3968 200.848,80.5641 197.735,81.6898 " style="fill:none;stroke:black;stroke-width:0.5" />
<polyline points="189.733,82.32 193.577,82.29 198.216,82.1166 201.184,81.4037 202.054,80.6715 " style="fill:none;stroke:black;stroke-width:0.5" />
<polyline points="181.815,81.0826 176.291,86.8948 174.607,94.501 173.92,103.887 171.815,114.317 165.198,123.564 158.111,125.52 " style="fill:none;stroke:black;stroke-width:0.5" />
<polyline points="158.052,123.782 164.443,120.37 170.099,110.559 172.06,100.691 173.373,92.1809 173.477,90.6259 " style="fill:none;stroke:black;stroke-width:0.5" />
<polyline points="187.806,79.1309 188.572,79.1392 192.339,79.1897 194.485,80.0004 196.165,79.2423 197.202,80.4221 199.288,79.6885 198.559,81.2159 197.735,81.6898 " style="fill:none;stroke:black;stroke-width:0.5" />
<polyline points="195.677,82.0883 197.735,81.6898 199.998,81.3322 201.184,81.4037 197.289,81.9345 " style="fill:none;stroke:black;stroke-width:0.5" />
<polyline points="186.635,81.9478 189.733,82.32 194.102,82.4774 193.577,82.29 " style="fill:none;stroke:black;stroke-width:0.5" />
<polyline points="142.85,84.893 143.511,80.1333 144.064,79.8503 144.89,80.1333 145.828,80.9807 146.715,82.389 147.3,83.5816 " style="fill:none;stroke:black;stroke-width:0.5" />
<polyline points="142.377,79.1584 142.109,78.9175 137.208,76.3724 " style="fill:none;stroke:black;stroke-width:0.5" />
<polyline points="70.2018,76.9484 66.2994,78.9175 65.1584,79.8932 " style="fill:none;stroke:black;stroke-width:0.5" />
<polyline points="58.0855,92.0143 58.2172,94.8429 59.0479,107.869 64.0871,120.904 73.5482,133.112 87.0424,143.454 103.413,150.86 119.438,154.077 131.714,153.356 139.499,150.195 " style="fill:none;stroke:black;stroke-width:0.5" />
<polyline points="79.971,155.568 82.0902,156.589 92.1977,159.166 103.788,160.088 115.418,159.166 125.637,156.589 128.324,155.321 " style="fill:none;stroke:black;stroke-width:0.5" />
<polyline points="142.853,84.8947 143.41,84.6734 144.242,85.0643 145.187,86.0468 146.083,87.5985 149.295,94.8429 152.814,95.5712 152.265,101.905 148.232,107.869 140.912,113.14 130.631,117.355 117.87,120.141 103.28,121.14 88.7448,120.141 76.135,117.355 66.0821,113.14 59.0479,107.869 55.3371,101.905 55.1309,95.5712 " style="fill:none;stroke:black;stroke-width:0.5" />
<polyline points="76.7463,68.1357 77.257,68.0959 77.6061,68.5164 77.6928,69.3519 77.4185,70.5537 70.9349,73.7802 66.6751,76.4244 64.1783,80.1333 63.9868,84.6734 66.4144,89.6673 71.6365,94.9351 79.7199,100.157 89.6728,111.37 103.28,121.14 118.704,128.535 133.33,133.112 145.47,134.88 153.692,134.236 156.679,131.545 " style="fill:none;stroke:black;stroke-width:0.5" />
<polyline points="49.8659,119.029 49.8659,119.029 " style="fill:none;stroke:black;stroke-width:0.5" />
<polyline points="74.1223,153.07 74.2539,153.373 " style="fill:none;stroke:black;stroke-width:0.5" />
<polyline points="93.5803,67.1302 93.6261,66.7626 " style="fill:none;stroke:black;stroke-width:0.5" />
<polyline points="114.285,64.6917 123.004,66.9812 131.002,70.5537 130.698,69.3519 130.773,68.5164 131.127,68.0959 131.656,68.1357 137.458,71.2995 141.409,75.5811 143.386,80.9713 " style="fill:none;stroke:black;stroke-width:0.5" />
<polyline points="143.41,84.6734 144.89,80.1333 143.553,76.1499 142.686,75.4263 138.119,71.4029 137.458,71.2995 137.014,71.6843 136.918,72.5235 137.296,73.7802 130.698,69.3519 123.056,66.1487 114.291,64.1965 114.111,64.1862 " style="fill:none;stroke:black;stroke-width:0.5" />
<polyline points="81.2744,69.3808 79.4984,70.7459 " style="fill:none;stroke:black;stroke-width:0.5" />
<polyline points="67.1282,81.5817 64.5633,84.0656 " style="fill:none;stroke:black;stroke-width:0.5" />
<polyline points="55.1309,95.5712 52.8866,108.708 54.9837,122.076 53.993,128.466 53.9223,134.236 62.8886,145.39 65.2689,148.379 75.6045,153.356 89.8002,157.888 90.9642,158.364 103.71,159.375 116.5,158.364 126.234,155.97 " style="fill:none;stroke:black;stroke-width:0.5" />
<polyline points="115.189,67.1736 115.127,66.7778 " style="fill:none;stroke:black;stroke-width:0.5" />
<polyline points="114.491,64.1618 114.491,64.1618 " style="fill:none;stroke:black;stroke-width:0.5" />
<polyline points="91.2344,67.1566 90.4168,67.6612 " style="fill:none;stroke:black;stroke-width:0.5" />
<polyline points="66.9877,85.3473 65.7477,86.555 " style="fill:none;stroke:black;stroke-width:0.5" />
<polyline points="52.7414,101.861 51.0504,115.18 53.993,128.466 61.6837,140.812 62.8886,145.39 73.8124,150.615 88.5858,156.648 103.638,158.984 116.5,158.364 127.717,155.54 " style="fill:none;stroke:black;stroke-width:0.5" />
<polyline points="51.3773,131.545 51.3773,131.545 " style="fill:none;stroke:black;stroke-width:0.5" />
<polyline points="113.696,66.596 114.256,66.6259 114.137,65.5092 " style="fill:none;stroke:black;stroke-width:0.5" />
<polyline points="114.209,64.4853 114.291,64.1965 114.491,64.1618 123.304,65.7025 130.773,68.5164 136.918,72.5235 141.732,77.7499 141.297,76.4244 141.409,75.5811 141.922,75.242 142.686,75.4263 144.89,80.1333 144.242,85.0643 140.708,89.6673 134.493,93.7026 125.892,96.9087 115.31,99.0165 103.261,99.7704 91.2571,99.0165 80.7996,96.9087 72.3897,93.7026 66.4144,89.6673 63.1536,85.0643 62.7986,80.1333 65.2825,75.4263 70.7356,71.2995 77.6061,68.5164 85.4645,66.1487 93.2663,65.5782 " style="fill:none;stroke:black;stroke-width:0.5" />
<polyline points="93.7043,66.6535 85.5265,66.9812 77.6061,68.5164 71.1767,71.6843 66.0368,75.242 65.2825,75.4263 61.8754,80.9807 61.0114,82.389 61.338,87.5985 61.7691,100.266 66.0821,113.14 74.6572,125.496 87.364,136.368 103.364,144.682 119.836,149.601 133.363,150.615 142.274,148.379 " style="fill:none;stroke:black;stroke-width:0.5" />
<polyline points="144.242,85.0643 145.828,80.9807 144.373,77.4264 " style="fill:none;stroke:black;stroke-width:0.5" />
<polyline points="69.7123,90.478 69.584,90.5737 " style="fill:none;stroke:black;stroke-width:0.5" />
<polyline points="49.9417,113.627 49.9288,126.837 53.9223,134.236 61.6837,140.812 73.8124,150.615 75.6045,153.356 88.5858,156.648 103.558,157.829 117.525,157.888 127.717,155.54 " style="fill:none;stroke:black;stroke-width:0.5" />
<polyline points="145.187,86.0468 145.828,80.9807 143.553,76.1499 " style="fill:none;stroke:black;stroke-width:0.5" />
<polyline points="137.56,74.0257 135.541,74.8592 " style="fill:none;stroke:black;stroke-width:0.5" />
<polyline points="73.7104,152.87 74.2539,153.373 " style="fill:none;stroke:black;stroke-width:0.5" />
<polyline points="139.187,89.4693 138.989,88.6219 " style="fill:none;stroke:black;stroke-width:0.5" />
<polyline points="134.365,73.8625 133.629,71.9046 " style="fill:none;stroke:black;stroke-width:0.5" />
<polyline points="122.403,68.0078 121.572,68.3277 " style="fill:none;stroke:black;stroke-width:0.5" />
<polyline points="145.187,86.0468 146.715,82.389 146.083,87.5985 142.428,92.4713 135.954,96.751 126.965,100.157 115.883,102.398 103.253,103.2 90.6708,102.398 79.7199,100.157 70.9308,96.751 64.7078,92.4713 61.338,87.5985 61.8754,80.9807 64.4357,76.1499 " style="fill:none;stroke:black;stroke-width:0.5" />
<polyline points="70.0883,71.4029 70.7356,71.2995 71.1767,71.6843 71.2847,72.5235 70.9349,73.7802 66.2662,77.7499 64.3134,80.9807 64.553,84.8947 " style="fill:none;stroke:black;stroke-width:0.5" />
<polyline points="185.558,81.3277 186.356,81.1345 189.031,80.9788 191.825,81.1345 194.117,81.6032 194.94,82.1589 " style="fill:none;stroke:black;stroke-width:0.5" />
<polyline points="198.559,81.2159 196.089,82.0072 " style="fill:none;stroke:black;stroke-width:0.5" />
<polyline points="195.568,82.0947 197.202,80.4221 194.117,81.6032 194.485,80.0004 191.825,81.1345 191.156,79.9262 188.659,79.4999 185.616,79.8592 184.703,79.9036 182.477,81.5849 184.286,82.8467 186.206,84.5137 190.476,84.7823 187.982,83.5772 185.548,82.2446 184.714,80.9405 183.77,81.1017 184.286,82.8467 187.982,83.5772 192.533,83.7784 196.881,83.4613 199.972,82.6434 " style="fill:none;stroke:black;stroke-width:0.5" />
<polyline points="181.815,81.0826 180.996,82.389 182.723,83.7119 186.206,84.5137 180.098,89.7909 178.934,98.2072 177.621,108.117 173.827,117.076 " style="fill:none;stroke:black;stroke-width:0.5" />
<polyline points="165.391,124.265 173.178,116.725 175.925,106.537 176.634,96.6114 177.628,88.5373 182.723,83.7119 184.286,82.8467 185.548,82.2446 186.375,81.9353 186.635,81.9478 189.827,82.4332 193.749,82.9916 196.881,83.4613 197.416,83.7119 187.611,90.0881 185.764,90.6701 183.036,90.5383 180.098,89.7909 177.628,88.5373 176.291,86.8948 176.689,85.5422 " style="fill:none;stroke:black;stroke-width:0.5" />
<polyline points="192.076,78.7981 192.076,78.7981 " style="fill:none;stroke:black;stroke-width:0.5" />
<polyline points="196.85,78.8786 196.85,78.8786 " style="fill:none;stroke:black;stroke-width:0.5" />
<polyline points="186.466,81.1283 185.783,81.4617 " style="fill:none;stroke:black;stroke-width:0.5" />
<polyline points="176.689,85.5422 173.373,92.1809 174.607,94.501 176.634,96.6114 178.934,98.2072 180.98,98.995 182.259,98.7024 187.611,90.0881 " style="fill:none;stroke:black;stroke-width:0.5" />
<polyline points="178.57,108.141 180.98,98.995 185.764,90.6701 194.542,84.5137 196.881,83.4613 198.093,82.6434 198.216,82.1166 197.289,81.9345 193.577,82.29 " style="fill:none;stroke:black;stroke-width:0.5" />
<polyline points="195.746,82.0815 199.998,81.3322 202.045,80.3959 " style="fill:none;stroke:black;stroke-width:0.5" />
<polyline points="187.148,81.0918 186.231,81.7174 " style="fill:none;stroke:black;stroke-width:0.5" />
<polyline points="170.688,95.6548 166.858,100.005 161.039,105.388 156.698,108.394 " style="fill:none;stroke:black;stroke-width:0.5" />
<polyline points="155.887,103.688 160.553,103.101 " style="fill:none;stroke:black;stroke-width:0.5" />
<polyline points="189.692,82.3123 191.568,81.1249 " style="fill:none;stroke:black;stroke-width:0.5" />
<polyline points="200.306,79.3968 200.306,79.3968 " style="fill:none;stroke:black;stroke-width:0.5" />
<polyline points="194.434,81.821 193.232,82.2902 " style="fill:none;stroke:black;stroke-width:0.5" />
<polyline points="182.259,98.7024 182.259,98.7024 " style="fill:none;stroke:black;stroke-width:0.5" />
<polyline points="173.477,90.6259 170.8,97.4944 167.154,102.123 161.039,105.388 156.589,105.938 " style="fill:none;stroke:black;stroke-width:0.5" />
<polyline points="156.208,104.711 160.553,103.101 166.858,100.005 " style="fill:none;stroke:black;stroke-width:0.5" />
<polyline points="187.611,90.0881 194.542,84.5137 192.533,83.7784 189.217,82.8677 186.375,81.9353 184.714,80.9405 185.616,79.8592 188.572,79.1392 192.627,78.8032 192.339,79.1897 191.156,79.9262 189.031,80.9788 187.956,80.1775 185.974,80.1452 184.714,80.9405 185.148,81.1017 186.635,81.9478 " style="fill:none;stroke:black;stroke-width:0.5" />
<polyline points="139.414,89.3326 143.404,84.681 " style="fill:none;stroke:black;stroke-width:0.5" />
<polyline points="139.414,89.3326 139.932,89.1716 144.235,85.0712 " style="fill:none;stroke:black;stroke-width:0.5" />
<polyline points="139.932,89.1716 140.708,89.6673 141.59,90.781 142.428,92.4713 145.438,100.266 148.232,107.869 150.628,115.175 152.451,122.076 153.528,128.466 153.692,134.236 145.619,140.812 134.155,146.097 119.836,149.601 103.413,150.86 87.0501,149.601 72.897,146.097 61.6837,140.812 61.7375,134.88 62.5876,128.198 64.0871,120.904 66.0821,113.14 68.4164,105.044 70.9308,96.751 71.6365,94.9351 72.3897,93.7026 73.0589,93.1117 73.5138,93.2177 81.6346,96.3007 91.5296,98.2956 103.261,99.7704 115.601,100.411 126.965,100.157 138.522,105.044 148.232,107.869 154.806,108.708 156.674,108.07 " style="fill:none;stroke:black;stroke-width:0.5" />
<polyline points="138.148,90.1421 137.873,90.0495 " style="fill:none;stroke:black;stroke-width:0.5" />
<polyline points="69.7469,90.5231 69.5855,90.5765 " style="fill:none;stroke:black;stroke-width:0.5" />
<polyline points="140.708,89.6673 145.187,86.0468 141.59,90.781 135.241,94.9351 126.441,98.2382 115.601,100.411 103.254,101.188 90.9528,100.411 80.2415,98.2382 71.6365,94.9351 65.5335,90.781 62.2161,86.0468 61.8754,80.9807 62.7986,80.1333 66.0368,75.242 66.5504,75.5811 66.6751,76.4244 66.2662,77.7499 64.3551,81.447 " style="fill:none;stroke:black;stroke-width:0.5" />
<polyline points="73.5138,93.2177 81.2962,96.2398 91.2571,99.0165 103.254,101.188 115.883,102.398 128.861,108.856 140.912,113.14 150.628,115.175 156.732,115.18 157.189,114.728 " style="fill:none;stroke:black;stroke-width:0.5" />
<polyline points="80.2678,155.649 82.0902,156.589 82.32,157.267 " style="fill:none;stroke:black;stroke-width:0.5" />
<polyline points="141.59,90.781 146.083,87.5985 149.889,89.0657 " style="fill:none;stroke:black;stroke-width:0.5" />
<polyline points="152.814,95.5712 152.814,95.5712 " style="fill:none;stroke:black;stroke-width:0.5" />
<polyline points="133.397,93.2177 139.414,89.3326 " style="fill:none;stroke:black;stroke-width:0.5" />
<polyline points="125.093,96.3007 133.397,93.2177 133.836,93.1117 140.699,89.6718 " style="fill:none;stroke:black;stroke-width:0.5" />
<polyline points="133.397,93.2177 139.924,89.1769 " style="fill:none;stroke:black;stroke-width:0.5" />
<polyline points="133.836,93.1117 134.493,93.7026 135.241,94.9351 135.954,96.751 138.522,105.044 140.912,113.14 142.969,120.904 144.538,128.198 145.47,134.88 145.619,140.812 144.528,145.39 142.274,148.379 131.714,153.356 129.683,154.83 117.525,157.888 103.638,158.984 89.8002,157.888 88.5858,156.648 87.5775,154.077 87.0501,149.601 87.0424,143.454 87.364,136.368 87.9531,128.535 88.7448,120.141 89.6728,111.37 90.6708,102.398 90.9528,100.411 91.2571,99.0165 91.5296,98.2956 103.271,99.0305 115.31,99.0165 126.441,98.2382 135.954,96.751 145.438,100.266 152.265,101.905 155.309,101.861 154.806,108.708 150.628,115.175 142.969,120.904 132.159,125.496 118.704,128.535 103.3,129.626 87.9531,128.535 74.6572,125.496 64.0871,120.904 56.7264,115.175 52.8866,108.708 52.7414,101.861 " style="fill:none;stroke:black;stroke-width:0.5" />
<polyline points="64.3577,81.4989 66.2994,78.9175 72.1644,73.1691 " style="fill:none;stroke:black;stroke-width:0.5" />
<polyline points="93.7432,66.7349 85.3399,68.1429 77.6928,69.3519 71.1767,71.6843 66.5504,75.5811 63.6202,79.8503 63.1536,85.0643 65.5335,90.781 70.9308,96.751 77.8624,108.856 88.7448,120.141 103.3,129.626 119.35,136.368 134.031,140.036 145.619,140.812 152.412,138.88 156.679,131.545 " style="fill:none;stroke:black;stroke-width:0.5" />
<polyline points="134.493,93.7026 141.581,90.7848 " style="fill:none;stroke:black;stroke-width:0.5" />
<polyline points="135.241,94.9351 142.428,92.4713 149.295,94.8429 145.438,100.266 138.522,105.044 128.861,108.856 116.909,111.37 103.266,112.271 89.6728,111.37 77.8624,108.856 68.4164,105.044 61.7691,100.266 58.2172,94.8429 61.338,87.5985 62.2161,86.0468 63.1536,85.0643 63.9868,84.6734 64.553,84.8947 67.7285,89.3326 73.0589,93.1117 80.7996,96.9087 90.9528,100.411 103.253,103.2 116.909,111.37 130.631,117.355 142.969,120.904 152.451,122.076 157.867,121.247 157.935,120.995 " style="fill:none;stroke:black;stroke-width:0.5" />
<polyline points="125.093,96.3007 133.826,93.1151 " style="fill:none;stroke:black;stroke-width:0.5" />
<polyline points="125.093,96.3007 125.412,96.2398 134.483,93.7053 " style="fill:none;stroke:black;stroke-width:0.5" />
<polyline points="125.412,96.2398 125.892,96.9087 126.441,98.2382 126.965,100.157 128.861,108.856 130.631,117.355 132.159,125.496 133.33,133.112 134.031,140.036 134.155,146.097 133.363,150.615 131.714,153.356 118.583,156.648 103.558,157.829 87.5775,154.077 73.8124,150.615 72.897,146.097 72.9242,140.036 73.5482,133.112 74.6572,125.496 76.135,117.355 77.8624,108.856 79.7199,100.157 80.2415,98.2382 80.7996,96.9087 81.2962,96.2398 91.5296,98.2956 " style="fill:none;stroke:black;stroke-width:0.5" />
<polyline points="115.047,98.2948 125.402,96.2418 " style="fill:none;stroke:black;stroke-width:0.5" />
<polyline points="125.892,96.9087 135.232,94.9371 " style="fill:none;stroke:black;stroke-width:0.5" />
<polyline points="115.047,98.2948 125.093,96.3007 " style="fill:none;stroke:black;stroke-width:0.5" />
<polyline points="103.271,99.0305 103.271,99.0305 " style="fill:none;stroke:black;stroke-width:0.5" />
<polyline points="73.5138,93.2177 67.7285,89.3326 " style="fill:none;stroke:black;stroke-width:0.5" />
<polyline points="64.6308,84.9966 64.3134,80.9807 64.1783,80.1333 66.5504,75.5811 71.2847,72.5235 77.4185,70.5537 85.3399,68.1429 85.5265,66.9812 85.4645,66.1487 85.2223,65.7025 84.8697,65.6961 " style="fill:none;stroke:black;stroke-width:0.5" />
<polyline points="67.0693,77.0706 66.2994,78.9175 64.5148,83.4817 " style="fill:none;stroke:black;stroke-width:0.5" />
<polyline points="115.056,98.2956 125.882,96.9099 " style="fill:none;stroke:black;stroke-width:0.5" />
<polyline points="115.056,98.2956 115.31,99.0165 115.601,100.411 115.883,102.398 116.909,111.37 117.87,120.141 118.704,128.535 119.35,136.368 119.746,143.454 119.836,149.601 119.438,154.077 118.583,156.648 117.525,157.888 116.5,158.364 115.727,158.616 115.418,159.166 115.313,159.824 " style="fill:none;stroke:black;stroke-width:0.5" />
<polyline points="115.056,98.2956 103.271,99.0305 103.261,99.7704 103.254,101.188 103.253,103.2 103.266,112.271 103.28,121.14 103.3,129.626 103.327,137.538 103.364,144.682 103.413,150.86 103.479,155.32 103.558,157.829 103.638,158.984 103.71,159.375 103.763,159.562 103.788,160.088 103.801,160.738 " style="fill:none;stroke:black;stroke-width:0.5" />
<polyline points="81.6346,96.3007 81.6346,96.3007 " style="fill:none;stroke:black;stroke-width:0.5" />
<polyline points="67.7285,89.3326 67.1971,89.1716 64.553,84.8947 64.1783,80.1333 63.6202,79.8503 62.7986,80.1333 62.2161,86.0468 64.7078,92.4713 68.4164,105.044 76.135,117.355 87.9531,128.535 103.327,137.538 119.746,143.454 134.155,146.097 144.528,145.39 149.772,142.163 " style="fill:none;stroke:black;stroke-width:0.5" />
<polyline points="80.2415,98.2382 90.6708,102.398 103.266,112.271 117.87,120.141 132.159,125.496 144.538,128.198 153.528,128.466 158.036,126.837 " style="fill:none;stroke:black;stroke-width:0.5" />
<polyline points="72.3897,93.7026 80.2328,98.2332 " style="fill:none;stroke:black;stroke-width:0.5" />
<polyline points="67.1971,89.1716 72.3822,93.696 " style="fill:none;stroke:black;stroke-width:0.5" />
<polyline points="67.1971,89.1716 66.4144,89.6673 65.5335,90.781 64.7078,92.4713 61.7691,100.266 59.0479,107.869 56.7264,115.175 54.9837,122.076 61.7375,134.88 72.897,146.097 87.5775,154.077 103.479,155.32 119.438,154.077 133.363,150.615 144.528,145.39 152.412,138.88 " style="fill:none;stroke:black;stroke-width:0.5" />
<polyline points="188.399,82.1566 190.976,81.088 " style="fill:none;stroke:black;stroke-width:0.5" />
<polyline points="194.756,82.0435 194.501,82.2002 " style="fill:none;stroke:black;stroke-width:0.5" />
<polyline points="156.732,115.18 156.936,111.975 " style="fill:none;stroke:black;stroke-width:0.5" />
<polyline points="157.867,121.247 157.923,120.268 " style="fill:none;stroke:black;stroke-width:0.5" />
<polyline points="152.451,122.076 156.727,115.188 " style="fill:none;stroke:black;stroke-width:0.5" />
<polyline points="153.528,128.466 157.862,121.255 " style="fill:none;stroke:black;stroke-width:0.5" />
<polyline points="144.538,128.198 152.443,122.082 " style="fill:none;stroke:black;stroke-width:0.5" />
<polyline points="145.47,134.88 153.52,128.472 " style="fill:none;stroke:black;stroke-width:0.5" />
<polyline points="133.33,133.112 144.529,128.202 " style="fill:none;stroke:black;stroke-width:0.5" />
<polyline points="134.031,140.036 145.461,134.885 " style="fill:none;stroke:black;stroke-width:0.5" />
<polyline points="119.35,136.368 133.32,133.114 " style="fill:none;stroke:black;stroke-width:0.5" />
<polyline points="119.746,143.454 134.022,140.038 " style="fill:none;stroke:black;stroke-width:0.5" />
<polyline points="103.327,137.538 119.34,136.369 " style="fill:none;stroke:black;stroke-width:0.5" />
<polyline points="103.364,144.682 119.736,143.454 " style="fill:none;stroke:black;stroke-width:0.5" />
<polyline points="87.364,136.368 103.317,137.537 " style="fill:none;stroke:black;stroke-width:0.5" />
<polyline points="87.0424,143.454 103.354,144.681 " style="fill:none;stroke:black;stroke-width:0.5" />
<polyline points="73.5482,133.112 87.3543,136.366 " style="fill:none;stroke:black;stroke-width:0.5" />
<polyline points="72.9242,140.036 87.0326,143.451 " style="fill:none;stroke:black;stroke-width:0.5" />
<polyline points="62.5876,128.198 73.539,133.108 " style="fill:none;stroke:black;stroke-width:0.5" />
<polyline points="61.7375,134.88 72.9151,140.031 " style="fill:none;stroke:black;stroke-width:0.5" />
<polyline points="54.9837,122.076 62.5798,128.191 " style="fill:none;stroke:black;stroke-width:0.5" />
<polyline points="53.993,128.466 61.7298,134.874 " style="fill:none;stroke:black;stroke-width:0.5" />
<polyline points="51.0504,115.18 54.9788,122.068 " style="fill:none;stroke:black;stroke-width:0.5" />
<polyline points="50.0066,121.247 53.9881,128.457 " style="fill:none;stroke:black;stroke-width:0.5" />
<polyline points="50.955,107.892 51.0502,115.17 " style="fill:none;stroke:black;stroke-width:0.5" />
<polyline points="49.9417,113.627 50.0065,121.236 " style="fill:none;stroke:black;stroke-width:0.5" />
<polyline points="66.7862,83.1214 64.5804,84.2585 " style="fill:none;stroke:black;stroke-width:0.5" />
<polyline points="67.3787,87.2493 66.5553,87.6828 " style="fill:none;stroke:black;stroke-width:0.5" />
<polyline points="143.003,83.7419 140.969,82.6631 " style="fill:none;stroke:black;stroke-width:0.5" />
<polyline points="141.142,87.0912 140.368,86.6723 " style="fill:none;stroke:black;stroke-width:0.5" />
<polyline points="155.309,101.861 155.309,101.861 " style="fill:none;stroke:black;stroke-width:0.5" />
<polyline points="109.572,74.5973 108.823,72.5744 " style="fill:none;stroke:black;stroke-width:0.5" />
<polyline points="98.7228,72.6226 98.0246,74.5973 98.1891,75.2589 98.7333,75.8529 99.6092,76.3561 100.767,76.7446 102.156,76.9948 103.722,77.0833 105.294,76.9948 106.698,76.7446 107.88,76.3561 108.786,75.8529 109.367,75.2589 109.572,74.5973 109.371,73.94 108.85,72.5407 " style="fill:none;stroke:black;stroke-width:0.5" />
<polyline points="114.333,64.8479 113.937,63.6975 112.875,62.6846 110.769,61.5622 109.517,60.9148 107.895,60.4208 105.971,60.1055 103.811,59.9945 101.642,60.1055 99.6977,60.4208 98.043,60.9148 96.7483,61.5622 94.7019,62.6846 93.5729,63.6975 93.1021,64.8479 93.3735,66.0122 94.5088,68.1928 95.3842,69.1384 97.7055,71.2203 100.184,73.8414 101.178,74.1703 102.369,74.3819 103.714,74.4567 105.063,74.3819 106.268,74.1703 107.283,73.8414 108.062,73.415 108.562,72.9109 110.253,70.7249 " style="fill:none;stroke:black;stroke-width:0.5" />
<polyline points="112.896,68.1928 113.985,66.0122 114.333,64.8479 111.873,63.2171 103.699,62.5966 95.8868,62.3381 93.5729,63.6975 " style="fill:none;stroke:black;stroke-width:0.5" />
<polyline points="94.5088,68.1928 94.5088,68.1928 " style="fill:none;stroke:black;stroke-width:0.5" />
<polyline points="97.7055,71.2203 99.4312,73.415 100.184,73.8414 100.767,76.7446 100.911,80.5406 99.0208,84.613 96.8343,88.9267 94.7386,93.1341 93.1657,96.8186 92.8234,98.3759 " style="fill:none;stroke:black;stroke-width:0.5" />
<polyline points="69.9812,90.8439 67.1298,86.8889 66.7249,82.389 68.8963,78.0745 73.1969,74.3715 74.6577,73.1711 80.363,70.3143 87.3762,68.1727 93.9211,67.0741 " style="fill:none;stroke:black;stroke-width:0.5" />
<polyline points="113.546,66.8975 121.067,68.1727 127.954,70.3143 133.49,73.1711 134.999,74.3715 139.083,78.0745 141.001,82.389 140.333,86.8889 137.429,90.6136 " style="fill:none;stroke:black;stroke-width:0.5" />
<polyline points="89.5591,97.8917 84.2615,95.0444 77.0555,92.3362 71.8789,88.9108 68.9857,84.9806 68.5637,80.7433 70.5931,76.672 74.6577,73.1711 83.4776,70.5337 89.5373,68.6723 94.3345,67.8634 " style="fill:none;stroke:black;stroke-width:0.5" />
<polyline points="113.144,67.7107 118.789,68.6723 124.737,70.5337 129.488,73.0085 132.757,76.0283 134.218,79.5222 133.554,83.1386 130.799,86.4745 126.142,89.3677 119.821,91.646 112.128,93.1341 103.418,93.6645 94.7386,93.1341 87.135,91.646 80.949,89.3677 76.4645,86.4745 73.9089,83.1386 73.4611,79.5222 75.13,76.0283 78.5798,73.0085 83.4776,70.5337 92.5466,69.9944 95.7256,69.4534 " style="fill:none;stroke:black;stroke-width:0.5" />
<polyline points="111.762,69.3298 115.627,69.9944 120.287,71.4701 123.974,73.423 126.469,75.7918 127.523,78.5136 126.917,81.3094 124.703,83.8695 121.044,86.0753 116.135,87.8028 110.203,88.9267 103.506,89.3264 96.8343,88.9267 90.9689,87.8028 86.1637,86.0753 82.638,83.8695 80.5776,81.3094 80.1388,78.5136 81.3569,75.7918 83.9934,73.423 87.7974,71.4701 92.5466,69.9944 96.9211,70.5173 " style="fill:none;stroke:black;stroke-width:0.5" />
<polyline points="108.868,72.5836 108.968,72.5879 110.974,73.2385 112.53,74.0913 113.545,75.113 113.921,76.2704 113.585,77.4411 112.586,78.4973 111.004,79.3955 108.929,80.0914 106.454,80.5406 103.678,80.6997 100.911,80.5406 98.463,80.0914 96.4301,79.3955 94.9033,78.4973 93.968,77.4411 93.7041,76.2704 94.1505,75.113 95.2269,74.0913 96.8348,73.2385 98.7089,72.6426 " style="fill:none;stroke:black;stroke-width:0.5" />
<polyline points="108.869,72.5706 108.968,72.5879 112.147,71.5201 115.627,69.9944 118.789,68.6723 121.067,68.1727 124.737,70.5337 127.954,70.3143 " style="fill:none;stroke:black;stroke-width:0.5" />
<polyline points="134.999,74.3715 137.347,76.672 139.083,78.0745 139.135,80.7433 138.462,84.9806 135.337,88.9108 129.957,92.3362 122.591,95.0444 113.582,96.8186 103.355,97.4521 93.1657,96.8186 84.2615,95.0444 80.949,89.3677 82.638,83.8695 87.6862,79.4328 93.7041,76.2704 98.2483,73.9491 " style="fill:none;stroke:black;stroke-width:0.5" />
<polyline points="101.642,60.1055 103.699,62.5966 107.831,66.0981 111.285,67.9518 111.96,69.1384 109.718,71.2203 108.062,73.415 108.786,75.8529 112.586,78.4973 118.252,81.1867 124.703,83.8695 130.799,86.4745 135.337,88.9108 136.947,90.9153 " style="fill:none;stroke:black;stroke-width:0.5" />
<polyline points="136.58,91.1589 129.957,92.3362 119.821,91.646 110.203,88.9267 103.6,84.8817 100.911,80.5406 102.156,76.9948 102.369,74.3819 101.789,72.5523 101.011,70.9609 100.656,69.0855 99.3857,66.0981 97.7464,65.5766 96.5137,64.9013 95.7552,64.1043 95.5353,63.2171 95.8868,62.3381 96.7483,61.5622 103.699,62.5966 111.594,64.1043 114.333,64.8479 " style="fill:none;stroke:black;stroke-width:0.5" />
<polyline points="112.896,68.1928 111.96,69.1384 " style="fill:none;stroke:black;stroke-width:0.5" />
<polyline points="109.718,71.2203 108.562,72.9109 109.367,75.2589 113.585,77.4411 119.842,79.4328 126.917,81.3094 133.554,83.1386 138.462,84.9806 140.333,86.8889 135.337,88.9108 126.142,89.3677 116.135,87.8028 108.195,84.613 103.678,80.6997 102.156,76.9948 101.178,74.1703 100.128,72.2606 98.7162,70.561 95.9471,67.9518 94.349,67.0611 93.3735,66.0122 95.5353,63.2171 103.699,62.5966 111.579,62.3381 112.875,62.6846 " style="fill:none;stroke:black;stroke-width:0.5" />
<polyline points="109.371,73.94 113.545,75.113 119.66,75.6073 126.469,75.7918 132.757,76.0283 137.347,76.672 139.135,80.7433 141.001,82.389 138.462,84.9806 130.799,86.4745 121.044,86.0753 112.28,83.8559 106.454,80.5406 103.722,77.0833 102.369,74.3819 100.128,72.2606 96.8128,69.9407 95.3842,69.1384 93.3735,66.0122 95.7552,64.1043 103.699,62.5966 110.769,61.5622 " style="fill:none;stroke:black;stroke-width:0.5" />
<polyline points="112.875,62.6846 112.875,62.6846 " style="fill:none;stroke:black;stroke-width:0.5" />
<polyline points="98.7008,72.5873 92.5334,72.5672 83.9934,73.423 78.5798,73.0085 74.6577,73.1711 68.8963,78.0745 70.5931,76.672 78.5798,73.0085 87.7974,71.4701 95.8598,71.5201 98.0567,71.7846 " style="fill:none;stroke:black;stroke-width:0.5" />
<polyline points="109.517,60.9148 103.699,62.5966 96.5137,64.9013 94.349,67.0611 95.3842,69.1384 98.7471,71.8074 101.178,74.1703 100.767,76.7446 98.463,80.0914 94.9813,83.8559 90.9689,87.8028 87.135,91.646 84.2615,95.0444 83.5671,96.6846 " style="fill:none;stroke:black;stroke-width:0.5" />
<polyline points="81.6512,96.302 77.0555,92.3362 76.4645,86.4745 80.5776,81.3094 87.314,77.5022 94.1505,75.113 98.3932,73.5351 " style="fill:none;stroke:black;stroke-width:0.5" />
<polyline points="105.971,60.1055 105.971,60.1055 " style="fill:none;stroke:black;stroke-width:0.5" />
<polyline points="109.028,73.0032 110.974,73.2385 115.41,72.5672 120.287,71.4701 124.737,70.5337 123.974,73.423 119.66,75.6073 113.921,76.2704 109.367,75.2589 108.062,73.415 108.639,71.8074 108.536,70.561 109.106,68.6411 107.831,66.0981 105.835,66.434 103.594,66.5528 101.36,66.434 99.3857,66.0981 98.0807,68.6411 98.7162,70.561 101.789,72.5523 103.714,74.4567 105.294,76.9948 106.454,80.5406 108.195,84.613 110.203,88.9267 112.128,93.1341 113.582,96.8186 113.908,98.3661 " style="fill:none;stroke:black;stroke-width:0.5" />
<polyline points="109.568,98.6378 103.355,97.4521 94.7386,93.1341 90.9689,87.8028 91.6477,82.6874 94.9033,78.4973 98.1891,75.2589 98.9629,72.9109 " style="fill:none;stroke:black;stroke-width:0.5" />
<polyline points="94.7019,62.6846 94.7019,62.6846 " style="fill:none;stroke:black;stroke-width:0.5" />
<polyline points="98.043,60.9148 103.699,62.5966 110.783,64.9013 113.985,66.0122 " style="fill:none;stroke:black;stroke-width:0.5" />
<polyline points="109.184,73.4324 112.53,74.0913 117.965,73.9458 123.974,73.423 129.488,73.0085 133.49,73.1711 137.347,76.672 134.218,79.5222 126.917,81.3094 118.252,81.1867 111.004,79.3955 106.698,76.7446 105.063,74.3819 103.666,72.6555 101.011,70.9609 98.0807,68.6411 95.9471,67.9518 96.5118,64.9112 " style="fill:none;stroke:black;stroke-width:0.5" />
<polyline points="108.562,72.9109 109.572,74.5973 113.921,76.2704 120.331,77.5022 127.523,78.5136 134.218,79.5222 139.135,80.7433 133.554,83.1386 124.703,83.8695 115.684,82.6874 108.929,80.0914 105.294,76.9948 105.063,74.3819 105.55,72.5523 106.216,70.9609 106.501,69.0855 105.835,66.434 103.699,62.5966 103.811,59.9945 " style="fill:none;stroke:black;stroke-width:0.5" />
<polyline points="94.7019,62.6846 94.7019,62.6846 " style="fill:none;stroke:black;stroke-width:0.5" />
<polyline points="97.4237,70.9683 99.4312,73.415 99.6092,76.3561 98.463,80.0914 99.0208,84.613 103.506,89.3264 112.128,93.1341 122.591,95.0444 129.112,94.8073 " style="fill:none;stroke:black;stroke-width:0.5" />
<polyline points="131.036,94.0924 129.957,92.3362 126.142,89.3677 121.044,86.0753 115.684,82.6874 111.004,79.3955 107.88,76.3561 106.268,74.1703 105.55,72.5523 103.609,71.1023 100.656,69.0855 98.0807,68.6411 97.7464,65.5766 103.699,62.5966 107.895,60.4208 " style="fill:none;stroke:black;stroke-width:0.5" />
<polyline points="107.283,73.8414 108.786,75.8529 113.585,77.4411 120.331,77.5022 126.469,75.7918 129.488,73.0085 127.954,70.3143 " style="fill:none;stroke:black;stroke-width:0.5" />
<polyline points="73.1969,74.3715 73.1969,74.3715 " style="fill:none;stroke:black;stroke-width:0.5" />
<polyline points="80.363,70.3143 89.5373,68.6723 95.1862,68.9287 " style="fill:none;stroke:black;stroke-width:0.5" />
<polyline points="109.939,71.1363 112.147,71.5201 115.41,72.5672 117.965,73.9458 119.66,75.6073 120.331,77.5022 119.842,79.4328 118.252,81.1867 115.684,82.6874 112.28,83.8559 108.195,84.613 103.6,84.8817 99.0208,84.613 94.9813,83.8559 91.6477,82.6874 89.171,81.1867 87.6862,79.4328 87.314,77.5022 88.0997,75.6073 89.8954,73.9458 92.5334,72.5672 95.8598,71.5201 97.605,71.2199 " style="fill:none;stroke:black;stroke-width:0.5" />
<polyline points="98.6167,72.9173 96.8348,73.2385 89.8954,73.9458 81.3569,75.7918 75.13,76.0283 70.5931,76.672 66.7249,82.389 68.5637,80.7433 75.13,76.0283 83.9934,73.423 89.8954,73.9458 95.2269,74.0913 98.4298,73.4461 " style="fill:none;stroke:black;stroke-width:0.5" />
<polyline points="99.6977,60.4208 103.699,62.5966 109.505,65.5766 112.941,67.0611 113.985,66.0122 111.594,64.1043 111.873,63.2171 111.579,62.3381 110.776,61.5692 " style="fill:none;stroke:black;stroke-width:0.5" />
<polyline points="107.283,73.8414 107.88,76.3561 112.586,78.4973 119.842,79.4328 127.523,78.5136 132.757,76.0283 133.49,73.1711 " style="fill:none;stroke:black;stroke-width:0.5" />
<polyline points="121.067,68.1727 121.067,68.1727 " style="fill:none;stroke:black;stroke-width:0.5" />
<polyline points="110.978,70.0542 112.147,71.5201 110.974,73.2385 109.152,73.338 " style="fill:none;stroke:black;stroke-width:0.5" />
<polyline points="98.9629,72.9109 99.4312,73.415 98.7333,75.8529 96.4301,79.3955 94.9813,83.8559 96.8343,88.9267 103.418,93.6645 113.582,96.8186 119.942,97.3213 " style="fill:none;stroke:black;stroke-width:0.5" />
<polyline points="123.264,96.6627 122.591,95.0444 119.821,91.646 116.135,87.8028 112.28,83.8559 108.929,80.0914 106.698,76.7446 106.268,74.1703 107.229,72.2606 108.536,70.561 110.48,69.9407 111.96,69.1384 112.941,67.0611 110.783,64.9013 109.505,65.5766 107.841,66.0952 " style="fill:none;stroke:black;stroke-width:0.5" />
<polyline points="103.714,74.4567 103.722,77.0833 103.678,80.6997 103.6,84.8817 103.506,89.3264 103.418,93.6645 103.355,97.4521 103.347,99.0163 " style="fill:none;stroke:black;stroke-width:0.5" />
<polyline points="99.0374,98.7637 93.1657,96.8186 87.135,91.646 86.1637,86.0753 89.171,81.1867 93.968,77.4411 98.0246,74.5973 " style="fill:none;stroke:black;stroke-width:0.5" />
<polyline points="100.184,73.8414 99.6092,76.3561 96.4301,79.3955 91.6477,82.6874 86.1637,86.0753 80.949,89.3677 77.0555,92.3362 75.944,94.135 " style="fill:none;stroke:black;stroke-width:0.5" />
<polyline points="74.9734,93.77 71.8789,88.9108 73.9089,83.1386 80.1388,78.5136 88.0997,75.6073 95.2269,74.0913 98.512,73.2106 " style="fill:none;stroke:black;stroke-width:0.5" />
<polyline points="98.9629,72.9109 98.7333,75.8529 94.9033,78.4973 89.171,81.1867 82.638,83.8695 76.4645,86.4745 71.8789,88.9108 70.2077,90.9933 " style="fill:none;stroke:black;stroke-width:0.5" />
<polyline points="70.1189,90.9338 68.9857,84.9806 73.4611,79.5222 81.3569,75.7918 88.0997,75.6073 94.1505,75.113 98.2469,73.9455 " style="fill:none;stroke:black;stroke-width:0.5" />
<polyline points="98.7539,72.6523 98.1891,75.2589 93.968,77.4411 87.6862,79.4328 80.5776,81.3094 73.9089,83.1386 68.9857,84.9806 67.1298,86.8889 68.5637,80.7433 73.4611,79.5222 80.1388,78.5136 87.314,77.5022 93.7041,76.2704 98.0246,74.5973 " style="fill:none;stroke:black;stroke-width:0.5" />
<polyline points="93.5729,63.6975 96.74,61.5678 " style="fill:none;stroke:black;stroke-width:0.5" />
<polyline points="98.5745,73.0206 96.8348,73.2385 92.5334,72.5672 87.7974,71.4701 83.4776,70.5337 80.363,70.3143 " style="fill:none;stroke:black;stroke-width:0.5" />
<polyline points="87.3762,68.1727 94.231,67.6649 " style="fill:none;stroke:black;stroke-width:0.5" />
<polyline points="108.918,72.4566 108.968,72.5879 108.88,72.6113 " style="fill:none;stroke:black;stroke-width:0.5" />
<polyline points="113.937,63.6975 111.588,62.3431 " style="fill:none;stroke:black;stroke-width:0.5" />
<polyline points="98.6355,72.5011 95.8598,71.5201 92.5466,69.9944 89.5373,68.6723 87.3762,68.1727 " style="fill:none;stroke:black;stroke-width:0.5" />
<polyline points="113.52,66.9583 118.789,68.6723 120.287,71.4701 117.965,73.9458 113.545,75.113 109.582,74.5986 " style="fill:none;stroke:black;stroke-width:0.5" />
<polyline points="112.904,68.1786 115.627,69.9944 115.41,72.5672 112.53,74.0913 109.371,73.94 108.828,72.5719 " style="fill:none;stroke:black;stroke-width:0.5" />
<polyline points="112.896,68.1928 112.941,67.0611 111.285,67.9518 109.106,68.6411 106.501,69.0855 103.574,69.2428 100.656,69.0855 101.36,66.434 103.699,62.5966 105.965,60.1129 " style="fill:none;stroke:black;stroke-width:0.5" />
<polyline points="113.937,63.6975 111.882,63.2194 " style="fill:none;stroke:black;stroke-width:0.5" />
<polyline points="49.8659,119.029 49.8659,119.029 " style="fill:none;stroke:black;stroke-width:0.5" />
<polyline points="49.8765,117.627 43.4603,116.017 49.8569,119.024 " style="fill:none;stroke:black;stroke-width:0.5" />
<polyline points="43.4603,116.017 49.8765,117.627 " style="fill:none;stroke:black;stroke-width:0.5" />
<polyline points="49.9165,126.305 42.7754,123.262 35.4493,119.092 29.0944,114.4 24.4833,109.541 21.4517,104.45 19.9953,99.1634 20.0377,97.4944 20.6263,92.7888 21.9093,91.3427 24.9906,88.2899 30.5314,86.4257 38.4882,85.4649 48.8093,85.1101 59.776,85.0662 " style="fill:none;stroke:black;stroke-width:0.5" />
<polyline points="56.9589,93.128 49.1146,93.1513 41.1906,93.3485 40.058,93.3287 33.3845,93.9596 28.6389,95.1853 25.9048,97.1966 25.2556,100.177 26.2731,103.965 28.5097,108.118 31.9824,112.393 36.7102,116.56 42.7174,120.398 49.9004,123.632 " style="fill:none;stroke:black;stroke-width:0.5" />
<polyline points="35.2922,118.989 29.0944,114.4 " style="fill:none;stroke:black;stroke-width:0.5" />
<polyline points="20.0377,97.4944 20.0377,97.4944 " style="fill:none;stroke:black;stroke-width:0.5" />
<polyline points="21.9093,91.3427 21.9093,91.3427 " style="fill:none;stroke:black;stroke-width:0.5" />
<polyline points="59.7033,85.2203 48.2446,86.2771 37.6246,86.6479 29.4506,87.6521 23.771,89.5998 20.6263,92.7888 19.9953,99.1634 22.5045,105.059 25.3259,109.902 29.6375,114.61 35.4493,119.092 42.6489,122.194 49.9103,125.366 " style="fill:none;stroke:black;stroke-width:0.5" />
<polyline points="49.913,125.474 42.7754,123.262 " style="fill:none;stroke:black;stroke-width:0.5" />
<polyline points="35.2922,118.989 35.2922,118.989 " style="fill:none;stroke:black;stroke-width:0.5" />
<polyline points="21.9093,91.3427 21.9093,91.3427 " style="fill:none;stroke:black;stroke-width:0.5" />
<polyline points="48.8093,85.1101 37.6246,86.6479 29.3343,89.641 23.7133,91.5249 20.5913,94.6098 19.9953,99.1634 21.1654,100.177 24.2599,104.856 26.7929,109.36 30.692,113.856 35.9708,118.186 42.6489,122.194 49.8999,123.666 " style="fill:none;stroke:black;stroke-width:0.5" />
<polyline points="49.8957,122.755 49.6796,121.321 42.9871,118.22 37.5154,114.523 33.2268,110.49 30.0926,106.394 28.0911,102.519 27.2,99.1634 25.9048,97.1966 26.5981,94.5567 30.1989,91.5541 37.4095,88.67 48.2446,86.2771 59.2456,86.2324 " style="fill:none;stroke:black;stroke-width:0.5" />
<polyline points="59.2301,86.5417 47.8859,88.3114 37.9097,90.6759 30.1989,91.5541 24.8031,93.2583 21.7785,96.0506 21.1654,100.177 22.5045,105.059 26.7929,109.36 31.9824,112.393 37.5154,114.523 43.4603,116.017 43.9433,114.721 38.5551,111.058 34.1435,108.424 30.0926,106.394 26.2731,103.965 23.0807,100.517 21.7785,96.0506 20.5913,94.6098 20.6263,92.7888 24.9906,88.2899 " style="fill:none;stroke:black;stroke-width:0.5" />
<polyline points="38.4882,85.4649 29.4506,87.6521 23.7133,91.5249 21.7785,96.0506 23.7139,96.9602 25.9048,97.1966 27.8578,96.631 30.4673,94.9234 33.3845,93.9596 38.8785,92.336 47.8736,90.3518 59.0746,88.5274 " style="fill:none;stroke:black;stroke-width:0.5" />
<polyline points="59.1332,88.2666 47.8859,88.3114 37.4095,88.67 29.3343,89.641 24.8031,93.2583 23.7139,96.9602 23.0807,100.517 24.2599,104.856 28.5097,108.118 33.2268,110.49 38.2327,112.389 43.9433,114.721 49.884,117.36 " style="fill:none;stroke:black;stroke-width:0.5" />
<polyline points="49.8806,117.343 44.2446,114.782 " style="fill:none;stroke:black;stroke-width:0.5" />
<polyline points="38.4882,85.4649 37.6246,86.6479 37.4095,88.67 37.9097,90.6759 38.8785,92.336 40.058,93.3287 48.5721,93.096 57.4624,93.0673 " style="fill:none;stroke:black;stroke-width:0.5" />
<polyline points="57.3912,93.076 49.1146,93.1513 48.5721,93.096 41.1906,93.3485 34.9428,93.8836 33.3845,93.9596 31.6761,93.091 30.1989,91.5541 29.3343,89.641 29.4506,87.6521 30.5314,86.4257 " style="fill:none;stroke:black;stroke-width:0.5" />
<polyline points="41.1906,93.3485 41.1906,93.3485 " style="fill:none;stroke:black;stroke-width:0.5" />
<polyline points="20.0377,97.4944 20.0377,97.4944 " style="fill:none;stroke:black;stroke-width:0.5" />
<polyline points="21.4517,104.45 25.3259,109.902 30.692,113.856 36.7102,116.56 42.9871,118.22 42.7174,120.398 42.6489,122.194 42.7754,123.262 " style="fill:none;stroke:black;stroke-width:0.5" />
<polyline points="24.9906,88.2899 23.771,89.5998 20.5913,94.6098 21.1654,100.177 23.0807,100.517 25.2556,100.177 27.2,99.1634 28.4328,97.4944 28.8582,95.9792 " style="fill:none;stroke:black;stroke-width:0.5" />
<polyline points="44.2446,114.782 38.5551,111.058 34.3341,107.064 31.1633,104.415 28.0911,102.519 25.2556,100.177 23.7139,96.9602 26.5981,94.5567 31.6761,93.091 37.9097,90.6759 47.8736,90.3518 58.6898,90.3105 " style="fill:none;stroke:black;stroke-width:0.5" />
<polyline points="58.6246,90.5123 48.1299,92.0574 40.058,93.3287 34.9428,93.8836 30.4673,94.9234 " style="fill:none;stroke:black;stroke-width:0.5" />
<polyline points="30.4673,94.9234 28.6389,95.1853 26.5981,94.5567 24.8031,93.2583 23.7133,91.5249 23.771,89.5998 30.5314,86.4257 " style="fill:none;stroke:black;stroke-width:0.5" />
<polyline points="34.9428,93.8836 34.9428,93.8836 " style="fill:none;stroke:black;stroke-width:0.5" />
<polyline points="49.8137,122.166 49.8874,122.197 " style="fill:none;stroke:black;stroke-width:0.5" />
<polyline points="49.8815,121.346 49.6903,121.218 " style="fill:none;stroke:black;stroke-width:0.5" />
<polyline points="49.1146,93.1513 49.1146,93.1513 " style="fill:none;stroke:black;stroke-width:0.5" />
<polyline points="48.8093,85.1101 48.2446,86.2771 47.8859,88.3114 47.8736,90.3518 48.1299,92.0574 48.5721,93.096 57.9956,92.154 " style="fill:none;stroke:black;stroke-width:0.5" />
<polyline points="58.0778,92.0222 48.1299,92.0574 38.8785,92.336 31.6761,93.091 28.6389,95.1853 27.8578,96.631 27.2,99.1634 29.2675,100.666 31.2517,103.008 34.3341,107.064 " style="fill:none;stroke:black;stroke-width:0.5" />
<polyline points="49.8456,119.347 49.8625,119.358 " style="fill:none;stroke:black;stroke-width:0.5" />
<polyline points="49.8719,120.002 49.7984,119.971 " style="fill:none;stroke:black;stroke-width:0.5" />
<polyline points="29.2856,99.1719 28.647,96.7409 " style="fill:none;stroke:black;stroke-width:0.5" />
<polyline points="27.8578,96.631 28.4328,97.4944 29.2856,99.1719 31.2517,103.008 " style="fill:none;stroke:black;stroke-width:0.5" />
<polyline points="44.2446,114.782 43.9433,114.721 49.8836,117.488 " style="fill:none;stroke:black;stroke-width:0.5" />
<polyline points="49.6796,121.321 49.8659,119.029 42.9871,118.22 49.6705,121.317 " style="fill:none;stroke:black;stroke-width:0.5" />
<polyline points="42.9871,118.22 49.8659,119.029 43.4603,116.017 42.9892,118.21 " style="fill:none;stroke:black;stroke-width:0.5" />
<polyline points="42.9871,118.22 43.4603,116.017 38.2327,112.389 34.1435,108.424 31.1633,104.415 29.2675,100.666 28.4328,97.4944 " style="fill:none;stroke:black;stroke-width:0.5" />
<polyline points="21.4517,104.45 22.5045,105.059 24.2599,104.856 26.2731,103.965 28.0911,102.519 29.2675,100.666 29.2856,99.1719 " style="fill:none;stroke:black;stroke-width:0.5" />
<polyline points="24.4833,109.541 29.6375,114.61 35.9708,118.186 42.7174,120.398 49.6696,121.319 " style="fill:none;stroke:black;stroke-width:0.5" />
<polyline points="30.0926,106.394 31.1633,104.415 31.2517,103.008 " style="fill:none;stroke:black;stroke-width:0.5" />
<polyline points="24.4833,109.541 25.3259,109.902 26.7929,109.36 28.5097,108.118 30.0859,106.401 " style="fill:none;stroke:black;stroke-width:0.5" />
<polyline points="33.2268,110.49 34.1435,108.424 34.3341,107.064 " style="fill:none;stroke:black;stroke-width:0.5" />
<polyline points="29.0944,114.4 29.6375,114.61 30.692,113.856 31.9824,112.393 33.2213,110.498 " style="fill:none;stroke:black;stroke-width:0.5" />
<polyline points="37.5154,114.523 38.2327,112.389 38.5551,111.058 " style="fill:none;stroke:black;stroke-width:0.5" />
<polyline points="35.2922,118.989 35.4493,119.092 35.9708,118.186 36.7102,116.56 37.5118,114.532 " style="fill:none;stroke:black;stroke-width:0.5" />
<polyline points="162.123,110.249 161.039,105.388 160.553,103.101 " style="fill:none;stroke:black;stroke-width:0.5" />
<polyline points="165.391,124.265 165.198,123.564 164.443,120.37 163.339,115.594 162.125,110.258 " style="fill:none;stroke:black;stroke-width:0.5" />
<polyline points="168.416,106.225 167.154,102.123 166.858,100.005 " style="fill:none;stroke:black;stroke-width:0.5" />
<polyline points="173.827,117.076 173.178,116.725 171.815,114.317 170.099,110.559 168.42,106.235 " style="fill:none;stroke:black;stroke-width:0.5" />
<polyline points="172.06,100.691 170.8,97.4944 170.688,95.6548 " style="fill:none;stroke:black;stroke-width:0.5" />
<polyline points="178.57,108.141 177.621,108.117 175.925,106.537 173.92,103.887 172.065,100.699 " style="fill:none;stroke:black;stroke-width:0.5" />
<polyline points="186.375,81.9353 185.148,81.1017 185.974,80.1452 185.616,79.8592 183.77,81.1017 184.703,79.9036 188.572,79.1392 188.659,79.4999 187.956,80.1775 186.356,81.1345 185.625,80.7356 185.148,81.1017 " style="fill:none;stroke:black;stroke-width:0.5" />
<polyline points="189.733,82.32 189.827,82.4332 186.385,81.9367 " style="fill:none;stroke:black;stroke-width:0.5" />
<polyline points="97.3868,70.9347 98.9566,72.9031 " style="fill:none;stroke:black;stroke-width:0.5" />
<polyline points="110.783,64.9013 111.587,64.1114 " style="fill:none;stroke:black;stroke-width:0.5" />
<polyline points="109.505,65.5766 111.285,67.9518 110.48,69.9407 109.718,71.2203 108.639,71.8074 107.229,72.2606 105.55,72.5523 103.666,72.6555 101.789,72.5523 100.128,72.2606 98.7471,71.8074 97.7055,71.2203 " style="fill:none;stroke:black;stroke-width:0.5" />
<polyline points="94.5088,68.1928 94.5088,68.1928 " style="fill:none;stroke:black;stroke-width:0.5" />
<polyline points="93.1021,64.8479 95.8793,62.3448 " style="fill:none;stroke:black;stroke-width:0.5" />
<polyline points="110.48,69.9407 108.639,71.8074 107.283,73.8414 107.229,72.2606 106.216,70.9609 103.574,69.2428 101.366,66.4419 " style="fill:none;stroke:black;stroke-width:0.5" />
<polyline points="109.106,68.6411 110.472,69.9338 " style="fill:none;stroke:black;stroke-width:0.5" />
<polyline points="105.835,66.434 109.098,68.6355 " style="fill:none;stroke:black;stroke-width:0.5" />
<polyline points="106.501,69.0855 108.536,70.561 106.216,70.9609 103.609,71.1023 101.011,70.9609 98.7162,70.561 96.8128,69.9407 94.349,67.0611 95.7509,64.1134 " style="fill:none;stroke:black;stroke-width:0.5" />
<polyline points="103.699,62.5966 103.594,66.5528 103.574,69.2428 103.609,71.1023 103.666,72.6555 103.714,74.4467 " style="fill:none;stroke:black;stroke-width:0.5" />
<polyline points="103.594,66.5528 106.494,69.079 " style="fill:none;stroke:black;stroke-width:0.5" />
<polyline points="103.699,62.5966 99.3934,66.0918 " style="fill:none;stroke:black;stroke-width:0.5" />
<polyline points="97.7464,65.5766 95.9471,67.9518 96.8128,69.9407 98.7471,71.8074 100.178,73.8332 " style="fill:none;stroke:black;stroke-width:0.5" />
<polyline points="95.5353,63.2171 93.1021,64.8479 " style="fill:none;stroke:black;stroke-width:0.5" />
<polyline points="101.642,60.1055 101.642,60.1055 " style="fill:none;stroke:black;stroke-width:0.5" />
<polyline points="103.811,59.9945 103.811,59.9945 " style="fill:none;stroke:black;stroke-width:0.5" />
</svg>
